<?xml version="1.0" encoding="utf-8"?>
<!-- Generator: Adobe Illustrator 18.1.0, SVG Export Plug-In . SVG Version: 6.00 Build 0)  -->
<svg version="1.1" id="Layer_1" xmlns="http://www.w3.org/2000/svg" xmlns:xlink="http://www.w3.org/1999/xlink" x="0px" y="0px"
	 viewBox="0 0 595.3 841.9" enable-background="new 0 0 595.3 841.9" xml:space="preserve">
<g>
	<g id="b4">
		<g>
			<path fill="#323B3F" d="M-21.3-15.4v13.8c0,1,0.8,1.7,1.7,1.7l0,0c1,0,1.7-0.8,1.7-1.7v-13.8c0-1-0.8-1.7-1.7-1.7l0,0
				C-20.6-17.1-21.3-16.4-21.3-15.4z"/>
			<path fill="#6D6357" d="M-25.5-8.8v-4.3c0-2.2,1.8-4,4-4h32.7c2.2,0,4,1.8,4,4v4.3c0,2.2-1.8,4-4,4h-32.7
				C-23.8-4.8-25.5-6.6-25.5-8.8z"/>
		</g>
		<g>
			<path fill="#323B3F" d="M-9,1.4v13.8c0,1,0.8,1.7,1.7,1.7l0,0c1,0,1.7-0.8,1.7-1.7V1.4c0-1-0.8-1.7-1.7-1.7l0,0
				C-8.3-0.3-9,0.5-9,1.4z"/>
			<path fill="#6D6357" d="M-12.8,12.9V8.7c0-2.2,1.8-4,4-4H24c2.2,0,4,1.8,4,4v4.3c0,2.2-1.8,4-4,4H-8.7
				C-11,17-12.8,15.1-12.8,12.9z"/>
		</g>
		<path fill="#323B3F" d="M6.6,3.9h55c1,0,1.7-0.8,1.7-1.7v-4.4c0-1-0.8-1.7-1.7-1.7h-55c-1,0-1.7,0.8-1.7,1.7v4.4
			C4.9,3.1,5.7,3.9,6.6,3.9z"/>
		<path fill="#91BA9B" d="M10.5,7.7V-8c0-5.4,4.4-9.8,9.8-9.8h15.3c5.4,0,9.8,4.4,9.8,9.8V7.7c0,5.4-4.4,9.8-9.8,9.8H20.3
			C14.9,17.5,10.5,13.1,10.5,7.7z"/>
		<path fill="#323B3F" d="M-81.6,1.7h92.1c1,0,1.7-0.8,1.7-1.7l0,0c0-1-0.8-1.7-1.7-1.7h-92c-1,0-1.7,0.8-1.7,1.7l0,0
			C-83.4,0.9-82.6,1.7-81.6,1.7z"/>
		<path fill="#323B3F" d="M-81.6,3.9h55c1,0,1.7-0.8,1.7-1.7v-4.4c0-1-0.8-1.7-1.7-1.7h-55c-1,0-1.7,0.8-1.7,1.7v4.4
			C-83.4,3.1-82.6,3.9-81.6,3.9z"/>
		<path fill="#323B3F" d="M-44.6,6.1V-6.1c0-1.4,1.1-2.5,2.5-2.5l0,0c1.4,0,2.5,1.1,2.5,2.5V6.1c0,1.4-1.1,2.5-2.5,2.5l0,0
			C-43.4,8.6-44.6,7.5-44.6,6.1z"/>
		<path fill="#323B3F" d="M-43.7,30.9v-61.7c0-1,0.8-1.7,1.7-1.7l0,0c1,0,1.7,0.8,1.7,1.7v61.7c0,1-0.8,1.7-1.7,1.7l0,0
			C-43,32.6-43.7,31.8-43.7,30.9z"/>
		<g>
			<g>
				<ellipse fill="#E8D4A5" cx="4.7" cy="-0.1" rx="12.9" ry="10"/>
				<ellipse fill="#E8D4A5" cx="0.9" cy="-0.1" rx="11.7" ry="3.9"/>
				<ellipse fill="#323B3F" cx="8.9" cy="-0.1" rx="14.4" ry="11.5"/>
			</g>
			<g>
				<path fill="#91BA9B" d="M-40.3-17.7v-5c0-2.2,1.8-4,4-4h49.9c2.2,0,4,1.8,4,4v5c0,2.2-1.8,4-4,4h-49.9
					C-38.5-13.8-40.3-15.5-40.3-17.7z"/>
				<path fill="#E8D4A5" d="M-47.4-17.6v-5.3c0-2,1.6-3.6,3.6-3.6h0.8c2,0,3.6,1.6,3.6,3.6v5.3c0,2-1.6,3.6-3.6,3.6h-0.8
					C-45.8-14-47.4-15.6-47.4-17.6z"/>
			</g>
			<g>
				<path fill="#91BA9B" d="M-40.3,22.6v-5c0-2.2,1.8-4,4-4h49.9c2.2,0,4,1.8,4,4v5c0,2.2-1.8,4-4,4h-49.9
					C-38.5,26.6-40.3,24.8-40.3,22.6z"/>
				<path fill="#E8D4A5" d="M-47.4,22.7v-5.3c0-2,1.6-3.6,3.6-3.6h0.8c2,0,3.6,1.6,3.6,3.6v5.3c0,2-1.6,3.6-3.6,3.6h-0.8
					C-45.8,26.3-47.4,24.7-47.4,22.7z"/>
			</g>
		</g>
	</g>
	<g id="b3">
		<g>
			<path fill="#323B3F" d="M-21.3,15.4V1.6c0-1,0.8-1.7,1.7-1.7l0,0c1,0,1.7,0.8,1.7,1.7v13.8c0,1-0.8,1.7-1.7,1.7l0,0
				C-20.6,17.1-21.3,16.4-21.3,15.4z"/>
			<path fill="#6D6357" d="M-25.5,8.8v4.3c0,2.2,1.8,4,4,4h32.7c2.2,0,4-1.8,4-4V8.8c0-2.2-1.8-4-4-4h-32.7
				C-23.8,4.8-25.5,6.6-25.5,8.8z"/>
		</g>
		<g>
			<path fill="#323B3F" d="M-9-1.4v-13.8c0-1,0.8-1.7,1.7-1.7l0,0c1,0,1.7,0.8,1.7,1.7v13.8c0,1-0.8,1.7-1.7,1.7l0,0
				C-8.3,0.3-9-0.5-9-1.4z"/>
			<path fill="#6D6357" d="M-12.8-12.9v4.3c0,2.2,1.8,4,4,4H24c2.2,0,4-1.8,4-4v-4.3c0-2.2-1.8-4-4-4H-8.7
				C-11-17-12.8-15.1-12.8-12.9z"/>
		</g>
		<path fill="#323B3F" d="M6.6-3.9h55c1,0,1.7,0.8,1.7,1.7v4.4c0,1-0.8,1.7-1.7,1.7h-55c-1,0-1.7-0.8-1.7-1.7v-4.4
			C4.9-3.1,5.7-3.9,6.6-3.9z"/>
		<path fill="#91BA9B" d="M10.5-7.7V8c0,5.4,4.4,9.8,9.8,9.8h15.3c5.4,0,9.8-4.4,9.8-9.8V-7.7c0-5.4-4.4-9.8-9.8-9.8H20.3
			C14.9-17.5,10.5-13.2,10.5-7.7z"/>
		<path fill="#323B3F" d="M-81.6-1.7h92.1c1,0,1.7,0.8,1.7,1.7l0,0c0,1-0.8,1.7-1.7,1.7h-92c-1,0-1.7-0.8-1.7-1.7l0,0
			C-83.4-0.9-82.6-1.7-81.6-1.7z"/>
		<path fill="#323B3F" d="M-81.6-3.9h55c1,0,1.7,0.8,1.7,1.7v4.4c0,1-0.8,1.7-1.7,1.7h-55c-1,0-1.7-0.8-1.7-1.7v-4.4
			C-83.4-3.2-82.6-3.9-81.6-3.9z"/>
		<path fill="#323B3F" d="M-44.6-6.1V6.1c0,1.4,1.1,2.5,2.5,2.5l0,0c1.4,0,2.5-1.1,2.5-2.5V-6.1c0-1.4-1.1-2.5-2.5-2.5l0,0
			C-43.4-8.6-44.6-7.5-44.6-6.1z"/>
		<path fill="#323B3F" d="M-43.7-30.9v61.7c0,1,0.8,1.7,1.7,1.7l0,0c1,0,1.7-0.8,1.7-1.7v-61.7c0-1-0.8-1.7-1.7-1.7l0,0
			C-43-32.6-43.7-31.8-43.7-30.9z"/>
		<g>
			<g>
				<ellipse fill="#E8D4A5" cx="4.7" cy="0.1" rx="12.9" ry="10"/>
				<ellipse fill="#E8D4A5" cx="0.9" cy="0.1" rx="11.7" ry="3.9"/>
				<ellipse fill="#323B3F" cx="8.9" cy="0.1" rx="14.4" ry="11.5"/>
			</g>
			<g>
				<path fill="#91BA9B" d="M-40.3,17.7v5c0,2.2,1.8,4,4,4h49.9c2.2,0,4-1.8,4-4v-5c0-2.2-1.8-4-4-4h-49.9
					C-38.5,13.8-40.3,15.5-40.3,17.7z"/>
				<path fill="#E8D4A5" d="M-47.4,17.6v5.3c0,2,1.6,3.6,3.6,3.6h0.8c2,0,3.6-1.6,3.6-3.6v-5.3c0-2-1.6-3.6-3.6-3.6h-0.8
					C-45.8,14-47.4,15.6-47.4,17.6z"/>
			</g>
			<g>
				<path fill="#91BA9B" d="M-40.3-22.6v5c0,2.2,1.8,4,4,4h49.9c2.2,0,4-1.8,4-4v-5c0-2.2-1.8-4-4-4h-49.9
					C-38.5-26.6-40.3-24.8-40.3-22.6z"/>
				<path fill="#E8D4A5" d="M-47.4-22.7v5.3c0,2,1.6,3.6,3.6,3.6h0.8c2,0,3.6-1.6,3.6-3.6v-5.3c0-2-1.6-3.6-3.6-3.6h-0.8
					C-45.8-26.3-47.4-24.7-47.4-22.7z"/>
			</g>
		</g>
	</g>
	<g id="b2">
		<g>
			<path fill="#323B3F" d="M-17.2-15.4v13.8c0,1,0.8,1.7,1.7,1.7l0,0c1,0,1.7-0.8,1.7-1.7v-13.8c0-1-0.8-1.7-1.7-1.7l0,0
				C-16.4-17.1-17.2-16.4-17.2-15.4z"/>
			<path fill="#6D6357" d="M-21.4-8.8v-4.3c0-2.2,1.8-4,4-4h32.7c2.2,0,4,1.8,4,4v4.3c0,2.2-1.8,4-4,4h-32.7
				C-19.6-4.8-21.4-6.6-21.4-8.8z"/>
		</g>
		<g>
			<path fill="#323B3F" d="M-13.5,1.4v13.8c0,1,0.8,1.7,1.7,1.7l0,0c1,0,1.7-0.8,1.7-1.7V1.4c0-1-0.8-1.7-1.7-1.7l0,0
				C-12.7-0.3-13.5,0.5-13.5,1.4z"/>
			<path fill="#6D6357" d="M-17.2,12.9V8.7c0-2.2,1.8-4,4-4h32.7c2.2,0,4,1.8,4,4v4.3c0,2.2-1.8,4-4,4h-32.7
				C-15.4,17-17.2,15.1-17.2,12.9z"/>
		</g>
		<path fill="#323B3F" d="M6.6,3.9h55c1,0,1.7-0.8,1.7-1.7v-4.4c0-1-0.8-1.7-1.7-1.7h-55c-1,0-1.7,0.8-1.7,1.7v4.4
			C4.9,3.1,5.7,3.9,6.6,3.9z"/>
		<path fill="#91BA9B" d="M10.5,7.7V-8c0-5.4,4.4-9.8,9.8-9.8h15.3c5.4,0,9.8,4.4,9.8,9.8V7.7c0,5.4-4.4,9.8-9.8,9.8H20.3
			C14.9,17.5,10.5,13.1,10.5,7.7z"/>
		<path fill="#323B3F" d="M-81.6,1.7h92.1c1,0,1.7-0.8,1.7-1.7l0,0c0-1-0.8-1.7-1.7-1.7h-92c-1,0-1.7,0.8-1.7,1.7l0,0
			C-83.4,0.9-82.6,1.7-81.6,1.7z"/>
		<path fill="#323B3F" d="M-81.6,3.9h55c1,0,1.7-0.8,1.7-1.7v-4.4c0-1-0.8-1.7-1.7-1.7h-55c-1,0-1.7,0.8-1.7,1.7v4.4
			C-83.4,3.1-82.6,3.9-81.6,3.9z"/>
		<path fill="#323B3F" d="M-44.6,6.1V-6.1c0-1.4,1.1-2.5,2.5-2.5l0,0c1.4,0,2.5,1.1,2.5,2.5V6.1c0,1.4-1.1,2.5-2.5,2.5l0,0
			C-43.4,8.6-44.6,7.5-44.6,6.1z"/>
		<path fill="#323B3F" d="M-43.7,30.9v-61.7c0-1,0.8-1.7,1.7-1.7l0,0c1,0,1.7,0.8,1.7,1.7v61.7c0,1-0.8,1.7-1.7,1.7l0,0
			C-43,32.6-43.7,31.8-43.7,30.9z"/>
		<g>
			<g>
				<ellipse fill="#E8D4A5" cx="4.7" cy="-0.1" rx="12.9" ry="10"/>
				<ellipse fill="#E8D4A5" cx="0.9" cy="-0.1" rx="11.7" ry="3.9"/>
				<ellipse fill="#323B3F" cx="8.9" cy="-0.1" rx="14.4" ry="11.5"/>
			</g>
			<g>
				<path fill="#91BA9B" d="M-40.3-17.7v-5c0-2.2,1.8-4,4-4h49.9c2.2,0,4,1.8,4,4v5c0,2.2-1.8,4-4,4h-49.9
					C-38.5-13.8-40.3-15.5-40.3-17.7z"/>
				<path fill="#E8D4A5" d="M-47.4-17.6v-5.3c0-2,1.6-3.6,3.6-3.6h0.8c2,0,3.6,1.6,3.6,3.6v5.3c0,2-1.6,3.6-3.6,3.6h-0.8
					C-45.8-14-47.4-15.6-47.4-17.6z"/>
			</g>
			<g>
				<path fill="#91BA9B" d="M-40.3,22.6v-5c0-2.2,1.8-4,4-4h49.9c2.2,0,4,1.8,4,4v5c0,2.2-1.8,4-4,4h-49.9
					C-38.5,26.6-40.3,24.8-40.3,22.6z"/>
				<path fill="#E8D4A5" d="M-47.4,22.7v-5.3c0-2,1.6-3.6,3.6-3.6h0.8c2,0,3.6,1.6,3.6,3.6v5.3c0,2-1.6,3.6-3.6,3.6h-0.8
					C-45.8,26.3-47.4,24.7-47.4,22.7z"/>
			</g>
		</g>
	</g>
	<g id="b1">
		<g>
			<path fill="#323B3F" d="M-17.2,15.4V1.6c0-1,0.8-1.7,1.7-1.7l0,0c1,0,1.7,0.8,1.7,1.7v13.8c0,1-0.8,1.7-1.7,1.7l0,0
				C-16.4,17.1-17.2,16.4-17.2,15.4z"/>
			<path fill="#6D6357" d="M-21.4,8.8v4.3c0,2.2,1.8,4,4,4h32.7c2.2,0,4-1.8,4-4V8.8c0-2.2-1.8-4-4-4h-32.7
				C-19.6,4.8-21.4,6.6-21.4,8.8z"/>
		</g>
		<g>
			<path fill="#323B3F" d="M-13.5-1.4v-13.8c0-1,0.8-1.7,1.7-1.7l0,0c1,0,1.7,0.8,1.7,1.7v13.8c0,1-0.8,1.7-1.7,1.7l0,0
				C-12.7,0.3-13.5-0.5-13.5-1.4z"/>
			<path fill="#6D6357" d="M-17.2-12.9v4.3c0,2.2,1.8,4,4,4h32.7c2.2,0,4-1.8,4-4v-4.3c0-2.2-1.8-4-4-4h-32.7
				C-15.4-17-17.2-15.1-17.2-12.9z"/>
		</g>
		<path fill="#323B3F" d="M6.6-3.9h55c1,0,1.7,0.8,1.7,1.7v4.4c0,1-0.8,1.7-1.7,1.7h-55c-1,0-1.7-0.8-1.7-1.7v-4.4
			C4.9-3.1,5.7-3.9,6.6-3.9z"/>
		<path fill="#91BA9B" d="M10.5-7.7V8c0,5.4,4.4,9.8,9.8,9.8h15.3c5.4,0,9.8-4.4,9.8-9.8V-7.7c0-5.4-4.4-9.8-9.8-9.8H20.3
			C14.9-17.5,10.5-13.2,10.5-7.7z"/>
		<path fill="#323B3F" d="M-81.6-1.7h92.1c1,0,1.7,0.8,1.7,1.7l0,0c0,1-0.8,1.7-1.7,1.7h-92c-1,0-1.7-0.8-1.7-1.7l0,0
			C-83.4-0.9-82.6-1.7-81.6-1.7z"/>
		<path fill="#323B3F" d="M-81.6-3.9h55c1,0,1.7,0.8,1.7,1.7v4.4c0,1-0.8,1.7-1.7,1.7h-55c-1,0-1.7-0.8-1.7-1.7v-4.4
			C-83.4-3.2-82.6-3.9-81.6-3.9z"/>
		<path fill="#323B3F" d="M-44.6-6.1V6.1c0,1.4,1.1,2.5,2.5,2.5l0,0c1.4,0,2.5-1.1,2.5-2.5V-6.1c0-1.4-1.1-2.5-2.5-2.5l0,0
			C-43.4-8.6-44.6-7.5-44.6-6.1z"/>
		<path fill="#323B3F" d="M-43.7-30.9v61.7c0,1,0.8,1.7,1.7,1.7l0,0c1,0,1.7-0.8,1.7-1.7v-61.7c0-1-0.8-1.7-1.7-1.7l0,0
			C-43-32.6-43.7-31.8-43.7-30.9z"/>
		<g>
			<g>
				<ellipse fill="#E8D4A5" cx="4.7" cy="0.1" rx="12.9" ry="10"/>
				<ellipse fill="#E8D4A5" cx="0.9" cy="0.1" rx="11.7" ry="3.9"/>
				<ellipse fill="#323B3F" cx="8.9" cy="0.1" rx="14.4" ry="11.5"/>
			</g>
			<g>
				<path fill="#91BA9B" d="M-40.3,17.7v5c0,2.2,1.8,4,4,4h49.9c2.2,0,4-1.8,4-4v-5c0-2.2-1.8-4-4-4h-49.9
					C-38.5,13.8-40.3,15.5-40.3,17.7z"/>
				<path fill="#E8D4A5" d="M-47.4,17.6v5.3c0,2,1.6,3.6,3.6,3.6h0.8c2,0,3.6-1.6,3.6-3.6v-5.3c0-2-1.6-3.6-3.6-3.6h-0.8
					C-45.8,14-47.4,15.6-47.4,17.6z"/>
			</g>
			<g>
				<path fill="#91BA9B" d="M-40.3-22.6v5c0,2.2,1.8,4,4,4h49.9c2.2,0,4-1.8,4-4v-5c0-2.2-1.8-4-4-4h-49.9
					C-38.5-26.6-40.3-24.8-40.3-22.6z"/>
				<path fill="#E8D4A5" d="M-47.4-22.7v5.3c0,2,1.6,3.6,3.6,3.6h0.8c2,0,3.6-1.6,3.6-3.6v-5.3c0-2-1.6-3.6-3.6-3.6h-0.8
					C-45.8-26.3-47.4-24.7-47.4-22.7z"/>
			</g>
		</g>
	</g>
</g>
<path id="path" fill="none" stroke="#3A53A4" stroke-miterlimit="10" d="M-135.3,92c365.4,6.3,730.6,19.9,730.6,223.2
	c0,340.7-658.3,365.6-730.6,379"/>
</svg>
