<?xml version="1.0" encoding="utf-8"?>
<!-- Generator: Adobe Illustrator 18.1.0, SVG Export Plug-In . SVG Version: 6.00 Build 0)  -->
<svg version="1.1" id="Layer_1" xmlns="http://www.w3.org/2000/svg" xmlns:xlink="http://www.w3.org/1999/xlink" x="0px" y="0px"
	 viewBox="0 0 595.3 841.9" enable-background="new 0 0 595.3 841.9" xml:space="preserve">
<g>
	<g id="b4">
		<g>
			<path fill="#323B3F" d="M260.5,431.2h33.3c2.3,0,4.1-1.8,4.1-4.1l0,0c0-2.3-1.8-4.1-4.1-4.1h-33.3c-2.3,0-4.1,1.8-4.1,4.1l0,0
				C256.4,429.4,258.2,431.2,260.5,431.2z"/>
			<path fill="#6D6357" d="M276.4,441.4H266c-5.4,0-9.7-4.4-9.7-9.7v-78.9c0-5.4,4.4-9.7,9.7-9.7h10.4c5.4,0,9.7,4.4,9.7,9.7v78.9
				C286,437.1,281.6,441.4,276.4,441.4z"/>
		</g>
		<g>
			<path fill="#323B3F" d="M301,401.5h33.3c2.3,0,4.1-1.8,4.1-4.1l0,0c0-2.3-1.8-4.1-4.1-4.1H301c-2.3,0-4.1,1.8-4.1,4.1l0,0
				C296.9,399.7,298.8,401.5,301,401.5z"/>
			<path fill="#6D6357" d="M328.8,410.6h-10.3c-5.4,0-9.7-4.4-9.7-9.7V322c0-5.4,4.4-9.7,9.7-9.7h10.3c5.4,0,9.7,4.4,9.7,9.7v78.8
				C338.5,406.3,334.1,410.6,328.8,410.6z"/>
		</g>
		<path fill="#323B3F" d="M307,363.8V231.2c0-2.3-1.8-4.1-4.1-4.1h-10.7c-2.3,0-4.1,1.8-4.1,4.1v132.6c0,2.3,1.8,4.1,4.1,4.1h10.7
			C305.1,367.9,307,366.1,307,363.8z"/>
		<path fill="#91BA9B" d="M316.3,354.4h-37.9c-13,0-23.6-10.6-23.6-23.6v-36.9c0-13,10.6-23.6,23.6-23.6h37.9
			c13,0,23.6,10.6,23.6,23.6v36.9C339.9,343.8,329.3,354.4,316.3,354.4z"/>
		<path fill="#323B3F" d="M301.7,576.6V354.7c0-2.3-1.8-4.1-4.1-4.1l0,0c-2.3,0-4.1,1.8-4.1,4.1v221.8c0,2.3,1.8,4.1,4.1,4.1l0,0
			C299.9,580.7,301.7,578.8,301.7,576.6z"/>
		<path fill="#323B3F" d="M307.1,576.6V443.9c0-2.3-1.8-4.1-4.1-4.1h-10.7c-2.3,0-4.1,1.8-4.1,4.1v132.6c0,2.3,1.8,4.1,4.1,4.1H303
			C305.2,580.7,307.1,578.8,307.1,576.6z"/>
		<path fill="#323B3F" d="M312.3,487.2H283c-3.4,0-6-2.7-6-6l0,0c0-3.4,2.7-6,6-6h29.3c3.4,0,6,2.7,6,6l0,0
			C318.4,484.5,315.6,487.2,312.3,487.2z"/>
		<path fill="#323B3F" d="M372,485.2H223.3c-2.3,0-4.1-1.8-4.1-4.1l0,0c0-2.3,1.8-4.1,4.1-4.1H372c2.3,0,4.1,1.8,4.1,4.1l0,0
			C376.2,483.4,374.3,485.2,372,485.2z"/>
		<g>
			<g>
				<ellipse fill="#E8D4A5" cx="297.4" cy="368.4" rx="24.1" ry="31.1"/>
				<ellipse fill="#E8D4A5" cx="297.4" cy="377.7" rx="9.4" ry="28.2"/>
				<ellipse fill="#323B3F" cx="297.4" cy="358.4" rx="27.7" ry="34.7"/>
			</g>
			<g>
				<path fill="#91BA9B" d="M254.9,477h-12.2c-5.4,0-9.7-4.4-9.7-9.7V347c0-5.4,4.4-9.7,9.7-9.7h12.2c5.4,0,9.7,4.4,9.7,9.7v120.4
					C264.5,472.7,260.2,477,254.9,477z"/>
				<path fill="#E8D4A5" d="M255.2,494h-12.8c-4.7,0-8.6-3.9-8.6-8.6v-1.8c0-4.7,3.9-8.6,8.6-8.6h12.8c4.7,0,8.6,3.9,8.6,8.6v1.8
					C263.8,490.2,259.9,494,255.2,494z"/>
			</g>
			<g>
				<path fill="#91BA9B" d="M352.1,477h-12.2c-5.4,0-9.7-4.4-9.7-9.7V347c0-5.4,4.4-9.7,9.7-9.7h12.2c5.4,0,9.7,4.4,9.7,9.7v120.4
					C361.7,472.7,357.4,477,352.1,477z"/>
				<path fill="#E8D4A5" d="M352.4,494h-12.8c-4.7,0-8.6-3.9-8.6-8.6v-1.8c0-4.7,3.9-8.6,8.6-8.6h12.8c4.7,0,8.6,3.9,8.6,8.6v1.8
					C361,490.2,357.1,494,352.4,494z"/>
			</g>
		</g>
	</g>
	<g id="b3">
		<g>
			<path fill="#323B3F" d="M334.8,431.2h-33.3c-2.3,0-4.1-1.8-4.1-4.1l0,0c0-2.3,1.8-4.1,4.1-4.1h33.3c2.3,0,4.1,1.8,4.1,4.1l0,0
				C338.9,429.4,337.1,431.2,334.8,431.2z"/>
			<path fill="#6D6357" d="M318.9,441.4h10.4c5.4,0,9.7-4.4,9.7-9.7v-78.9c0-5.4-4.4-9.7-9.7-9.7h-10.4c-5.4,0-9.7,4.4-9.7,9.7v78.9
				C309.3,437.1,313.6,441.4,318.9,441.4z"/>
		</g>
		<g>
			<path fill="#323B3F" d="M294.2,401.5h-33.3c-2.3,0-4.1-1.8-4.1-4.1l0,0c0-2.3,1.8-4.1,4.1-4.1h33.3c2.3,0,4.1,1.8,4.1,4.1l0,0
				C298.3,399.7,296.5,401.5,294.2,401.5z"/>
			<path fill="#6D6357" d="M266.5,410.6h10.3c5.4,0,9.7-4.4,9.7-9.7V322c0-5.4-4.4-9.7-9.7-9.7h-10.3c-5.4,0-9.7,4.4-9.7,9.7v78.8
				C256.8,406.3,261.2,410.6,266.5,410.6z"/>
		</g>
		<path fill="#323B3F" d="M288.2,363.8V231.2c0-2.3,1.8-4.1,4.1-4.1h10.7c2.3,0,4.1,1.8,4.1,4.1v132.6c0,2.3-1.8,4.1-4.1,4.1h-10.7
			C290.1,367.9,288.2,366.1,288.2,363.8z"/>
		<path fill="#91BA9B" d="M279,354.4h37.9c13,0,23.6-10.6,23.6-23.6v-36.9c0-13-10.6-23.6-23.6-23.6H279c-13,0-23.6,10.6-23.6,23.6
			v36.9C255.4,343.8,265.9,354.4,279,354.4z"/>
		<path fill="#323B3F" d="M293.5,576.6V354.7c0-2.3,1.8-4.1,4.1-4.1l0,0c2.3,0,4.1,1.8,4.1,4.1v221.8c0,2.3-1.8,4.1-4.1,4.1l0,0
			C295.4,580.7,293.5,578.8,293.5,576.6z"/>
		<path fill="#323B3F" d="M288.2,576.6V443.9c0-2.3,1.8-4.1,4.1-4.1H303c2.3,0,4.1,1.8,4.1,4.1v132.6c0,2.3-1.8,4.1-4.1,4.1h-10.7
			C290,580.7,288.2,578.8,288.2,576.6z"/>
		<path fill="#323B3F" d="M283,487.2h29.3c3.4,0,6-2.7,6-6l0,0c0-3.4-2.7-6-6-6H283c-3.4,0-6,2.7-6,6l0,0
			C276.9,484.5,279.6,487.2,283,487.2z"/>
		<path fill="#323B3F" d="M223.2,485.2H372c2.3,0,4.1-1.8,4.1-4.1l0,0c0-2.3-1.8-4.1-4.1-4.1H223.2c-2.3,0-4.1,1.8-4.1,4.1l0,0
			C219.1,483.4,220.9,485.2,223.2,485.2z"/>
		<g>
			<g>
				<ellipse fill="#E8D4A5" cx="297.8" cy="368.4" rx="24.1" ry="31.1"/>
				<ellipse fill="#E8D4A5" cx="297.8" cy="377.7" rx="9.4" ry="28.2"/>
				<ellipse fill="#323B3F" cx="297.8" cy="358.4" rx="27.7" ry="34.7"/>
			</g>
			<g>
				<path fill="#91BA9B" d="M340.4,477h12.2c5.4,0,9.7-4.4,9.7-9.7V347c0-5.4-4.4-9.7-9.7-9.7h-12.2c-5.4,0-9.7,4.4-9.7,9.7v120.4
					C330.8,472.7,335.1,477,340.4,477z"/>
				<path fill="#E8D4A5" d="M340.1,494h12.8c4.7,0,8.6-3.9,8.6-8.6v-1.8c0-4.7-3.9-8.6-8.6-8.6h-12.8c-4.7,0-8.6,3.9-8.6,8.6v1.8
					C331.5,490.2,335.4,494,340.1,494z"/>
			</g>
			<g>
				<path fill="#91BA9B" d="M243.2,477h12.2c5.4,0,9.7-4.4,9.7-9.7V347c0-5.4-4.4-9.7-9.7-9.7h-12.2c-5.4,0-9.7,4.4-9.7,9.7v120.4
					C233.5,472.7,237.9,477,243.2,477z"/>
				<path fill="#E8D4A5" d="M242.9,494h12.8c4.7,0,8.6-3.9,8.6-8.6v-1.8c0-4.7-3.9-8.6-8.6-8.6h-12.8c-4.7,0-8.6,3.9-8.6,8.6v1.8
					C234.3,490.2,238.1,494,242.9,494z"/>
			</g>
		</g>
	</g>
	<g id="b2">
		<g>
			<path fill="#323B3F" d="M260.5,421.2h33.3c2.3,0,4.1-1.8,4.1-4.1l0,0c0-2.3-1.8-4.1-4.1-4.1h-33.3c-2.3,0-4.1,1.8-4.1,4.1l0,0
				C256.4,419.3,258.2,421.2,260.5,421.2z"/>
			<path fill="#6D6357" d="M276.4,431.3H266c-5.4,0-9.7-4.4-9.7-9.7v-78.9c0-5.4,4.4-9.7,9.7-9.7h10.4c5.4,0,9.7,4.4,9.7,9.7v78.9
				C286,427,281.6,431.3,276.4,431.3z"/>
		</g>
		<g>
			<path fill="#323B3F" d="M301,412.3h33.3c2.3,0,4.1-1.8,4.1-4.1l0,0c0-2.3-1.8-4.1-4.1-4.1H301c-2.3,0-4.1,1.8-4.1,4.1l0,0
				C296.9,410.4,298.8,412.3,301,412.3z"/>
			<path fill="#6D6357" d="M328.8,421.2h-10.3c-5.4,0-9.7-4.4-9.7-9.7v-78.8c0-5.4,4.4-9.7,9.7-9.7h10.3c5.4,0,9.7,4.4,9.7,9.7v78.8
				C338.5,417,334.1,421.2,328.8,421.2z"/>
		</g>
		<path fill="#323B3F" d="M307,363.8V231.2c0-2.3-1.8-4.1-4.1-4.1h-10.7c-2.3,0-4.1,1.8-4.1,4.1v132.6c0,2.3,1.8,4.1,4.1,4.1h10.7
			C305.1,367.9,307,366.1,307,363.8z"/>
		<path fill="#91BA9B" d="M316.3,354.4h-37.9c-13,0-23.6-10.6-23.6-23.6v-36.9c0-13,10.6-23.6,23.6-23.6h37.9
			c13,0,23.6,10.6,23.6,23.6v36.9C339.9,343.8,329.3,354.4,316.3,354.4z"/>
		<path fill="#323B3F" d="M301.7,576.6V354.7c0-2.3-1.8-4.1-4.1-4.1l0,0c-2.3,0-4.1,1.8-4.1,4.1v221.8c0,2.3,1.8,4.1,4.1,4.1l0,0
			C299.9,580.7,301.7,578.8,301.7,576.6z"/>
		<path fill="#323B3F" d="M307.1,576.6V443.9c0-2.3-1.8-4.1-4.1-4.1h-10.7c-2.3,0-4.1,1.8-4.1,4.1v132.6c0,2.3,1.8,4.1,4.1,4.1H303
			C305.2,580.7,307.1,578.8,307.1,576.6z"/>
		<path fill="#323B3F" d="M312.3,487.2H283c-3.4,0-6-2.7-6-6l0,0c0-3.4,2.7-6,6-6h29.3c3.4,0,6,2.7,6,6l0,0
			C318.4,484.5,315.6,487.2,312.3,487.2z"/>
		<path fill="#323B3F" d="M372,485.2H223.3c-2.3,0-4.1-1.8-4.1-4.1l0,0c0-2.3,1.8-4.1,4.1-4.1H372c2.3,0,4.1,1.8,4.1,4.1l0,0
			C376.2,483.4,374.3,485.2,372,485.2z"/>
		<g>
			<g>
				<ellipse fill="#E8D4A5" cx="297.4" cy="368.4" rx="24.1" ry="31.1"/>
				<ellipse fill="#E8D4A5" cx="297.4" cy="377.7" rx="9.4" ry="28.2"/>
				<ellipse fill="#323B3F" cx="297.4" cy="358.4" rx="27.7" ry="34.7"/>
			</g>
			<g>
				<path fill="#91BA9B" d="M254.9,477h-12.2c-5.4,0-9.7-4.4-9.7-9.7V347c0-5.4,4.4-9.7,9.7-9.7h12.2c5.4,0,9.7,4.4,9.7,9.7v120.4
					C264.5,472.7,260.2,477,254.9,477z"/>
				<path fill="#E8D4A5" d="M255.2,494h-12.8c-4.7,0-8.6-3.9-8.6-8.6v-1.8c0-4.7,3.9-8.6,8.6-8.6h12.8c4.7,0,8.6,3.9,8.6,8.6v1.8
					C263.8,490.2,259.9,494,255.2,494z"/>
			</g>
			<g>
				<path fill="#91BA9B" d="M352.1,477h-12.2c-5.4,0-9.7-4.4-9.7-9.7V347c0-5.4,4.4-9.7,9.7-9.7h12.2c5.4,0,9.7,4.4,9.7,9.7v120.4
					C361.7,472.7,357.4,477,352.1,477z"/>
				<path fill="#E8D4A5" d="M352.4,494h-12.8c-4.7,0-8.6-3.9-8.6-8.6v-1.8c0-4.7,3.9-8.6,8.6-8.6h12.8c4.7,0,8.6,3.9,8.6,8.6v1.8
					C361,490.2,357.1,494,352.4,494z"/>
			</g>
		</g>
	</g>
	<g id="b1">
		<g>
			<path fill="#323B3F" d="M334.8,421.2h-33.3c-2.3,0-4.1-1.8-4.1-4.1l0,0c0-2.3,1.8-4.1,4.1-4.1h33.3c2.3,0,4.1,1.8,4.1,4.1l0,0
				C338.9,419.3,337.1,421.2,334.8,421.2z"/>
			<path fill="#6D6357" d="M318.9,431.3h10.4c5.4,0,9.7-4.4,9.7-9.7v-78.9c0-5.4-4.4-9.7-9.7-9.7h-10.4c-5.4,0-9.7,4.4-9.7,9.7v78.9
				C309.3,427,313.6,431.3,318.9,431.3z"/>
		</g>
		<g>
			<path fill="#323B3F" d="M294.2,412.3h-33.3c-2.3,0-4.1-1.8-4.1-4.1l0,0c0-2.3,1.8-4.1,4.1-4.1h33.3c2.3,0,4.1,1.8,4.1,4.1l0,0
				C298.3,410.4,296.5,412.3,294.2,412.3z"/>
			<path fill="#6D6357" d="M266.5,421.2h10.3c5.4,0,9.7-4.4,9.7-9.7v-78.8c0-5.4-4.4-9.7-9.7-9.7h-10.3c-5.4,0-9.7,4.4-9.7,9.7v78.8
				C256.8,417,261.2,421.2,266.5,421.2z"/>
		</g>
		<path fill="#323B3F" d="M288.2,363.8V231.2c0-2.3,1.8-4.1,4.1-4.1h10.7c2.3,0,4.1,1.8,4.1,4.1v132.6c0,2.3-1.8,4.1-4.1,4.1h-10.7
			C290.1,367.9,288.2,366.1,288.2,363.8z"/>
		<path fill="#91BA9B" d="M279,354.4h37.9c13,0,23.6-10.6,23.6-23.6v-36.9c0-13-10.6-23.6-23.6-23.6H279c-13,0-23.6,10.6-23.6,23.6
			v36.9C255.4,343.8,265.9,354.4,279,354.4z"/>
		<path fill="#323B3F" d="M293.5,576.6V354.7c0-2.3,1.8-4.1,4.1-4.1l0,0c2.3,0,4.1,1.8,4.1,4.1v221.8c0,2.3-1.8,4.1-4.1,4.1l0,0
			C295.4,580.7,293.5,578.8,293.5,576.6z"/>
		<path fill="#323B3F" d="M288.2,576.6V443.9c0-2.3,1.8-4.1,4.1-4.1H303c2.3,0,4.1,1.8,4.1,4.1v132.6c0,2.3-1.8,4.1-4.1,4.1h-10.7
			C290,580.7,288.2,578.8,288.2,576.6z"/>
		<path fill="#323B3F" d="M283,487.2h29.3c3.4,0,6-2.7,6-6l0,0c0-3.4-2.7-6-6-6H283c-3.4,0-6,2.7-6,6l0,0
			C276.9,484.5,279.6,487.2,283,487.2z"/>
		<path fill="#323B3F" d="M223.2,485.2H372c2.3,0,4.1-1.8,4.1-4.1l0,0c0-2.3-1.8-4.1-4.1-4.1H223.2c-2.3,0-4.1,1.8-4.1,4.1l0,0
			C219.1,483.4,220.9,485.2,223.2,485.2z"/>
		<g>
			<g>
				<ellipse fill="#E8D4A5" cx="297.8" cy="368.4" rx="24.1" ry="31.1"/>
				<ellipse fill="#E8D4A5" cx="297.8" cy="377.7" rx="9.4" ry="28.2"/>
				<ellipse fill="#323B3F" cx="297.8" cy="358.4" rx="27.7" ry="34.7"/>
			</g>
			<g>
				<path fill="#91BA9B" d="M340.4,477h12.2c5.4,0,9.7-4.4,9.7-9.7V347c0-5.4-4.4-9.7-9.7-9.7h-12.2c-5.4,0-9.7,4.4-9.7,9.7v120.4
					C330.8,472.7,335.1,477,340.4,477z"/>
				<path fill="#E8D4A5" d="M340.1,494h12.8c4.7,0,8.6-3.9,8.6-8.6v-1.8c0-4.7-3.9-8.6-8.6-8.6h-12.8c-4.7,0-8.6,3.9-8.6,8.6v1.8
					C331.5,490.2,335.4,494,340.1,494z"/>
			</g>
			<g>
				<path fill="#91BA9B" d="M243.2,477h12.2c5.4,0,9.7-4.4,9.7-9.7V347c0-5.4-4.4-9.7-9.7-9.7h-12.2c-5.4,0-9.7,4.4-9.7,9.7v120.4
					C233.5,472.7,237.9,477,243.2,477z"/>
				<path fill="#E8D4A5" d="M242.9,494h12.8c4.7,0,8.6-3.9,8.6-8.6v-1.8c0-4.7-3.9-8.6-8.6-8.6h-12.8c-4.7,0-8.6,3.9-8.6,8.6v1.8
					C234.3,490.2,238.1,494,242.9,494z"/>
			</g>
		</g>
	</g>
</g>
<path  class="path" fill="none" stroke="#3A53A4" stroke-miterlimit="10" d="M-387.2,92c365.4,6.3,730.6,19.9,730.6,223.2
	c0,340.7-658.3,365.6-730.6,379"/>
</svg>
