<?xml version="1.0" encoding="utf-8"?>
<!-- Generator: Adobe Illustrator 18.1.0, SVG Export Plug-In . SVG Version: 6.00 Build 0)  -->
<svg version="1.1" id="Layer_1" xmlns="http://www.w3.org/2000/svg" xmlns:xlink="http://www.w3.org/1999/xlink" x="0px" y="0px"
	 viewBox="0 0 595.3 841.9" enable-background="new 0 0 595.3 841.9" xml:space="preserve">
<g>
	<g id="m3">
		<path fill="#E8D4A5" d="M263.2,454.5h-11.3c-5.3,0-9.7-4.3-9.7-9.7v0c0-5.3,4.3-9.7,9.7-9.7h11.3c5.3,0,9.7,4.3,9.7,9.7v0
			C272.9,450.1,268.5,454.5,263.2,454.5z"/>
		<path fill="#323B3F" d="M347.8,389.7v-19.1c0-3.2-2.6-5.8-5.8-5.8h-75.2c-3.2,0-5.8,2.6-5.8,5.8v19.1c0,3.2,2.6,5.8,5.8,5.8H342
			C345.2,395.5,347.8,392.9,347.8,389.7z"/>
		<path fill="#323B3F" d="M331.7,377.1V358c0-3.2-2.6-5.8-5.8-5.8h-43.1c-3.2,0-5.8,2.6-5.8,5.8v19.1c0,3.2,2.6,5.8,5.8,5.8h43.1
			C329.1,382.9,331.7,380.3,331.7,377.1z"/>
		<path fill="#6D6357" d="M282.9,499.4L282.9,499.4c-7.3,0-13.2-5.9-13.2-13.2v-47.7c0-7.3,5.9-13.2,13.2-13.2h0
			c7.3,0,13.2,5.9,13.2,13.2v47.7C296.1,493.5,290.2,499.4,282.9,499.4z"/>
		<path fill="#6D6357" d="M325.9,472.9L325.9,472.9c-7.3,0-13.2-5.9-13.2-13.2v-47.7c0-7.3,5.9-13.2,13.2-13.2h0
			c7.3,0,13.2,5.9,13.2,13.2v47.7C339,467,333.1,472.9,325.9,472.9z"/>
		<path fill="#91BA9B" d="M314.8,463.6H294c-18.2,0-33-14.8-33-33v-2c0-18.2,14.8-33,33-33h20.8c18.2,0,33,14.8,33,33v2
			C347.8,448.8,333,463.6,314.8,463.6z"/>
		<path fill="#91BA9B" d="M263.5,435.1h-5.1c-7.5,0-13.5-6.1-13.5-13.5v-4.5c0-7.5,6.1-13.5,13.5-13.5h5.1c7.5,0,13.5,6.1,13.5,13.5
			v4.5C277,429.1,271,435.1,263.5,435.1z"/>
		<path fill="#91BA9B" d="M350.3,481.9h-5.1c-7.5,0-13.5-6.1-13.5-13.5v-42.7c0-7.5,6.1-13.5,13.5-13.5h5.1
			c7.5,0,13.5,6.1,13.5,13.5v42.7C363.8,475.9,357.8,481.9,350.3,481.9z"/>
		<path fill="#E8D4A5" d="M353.4,501.3h-11.3c-5.3,0-9.7-4.3-9.7-9.7v0c0-5.3,4.3-9.7,9.7-9.7h11.3c5.3,0,9.7,4.3,9.7,9.7v0
			C363.1,496.9,358.8,501.3,353.4,501.3z"/>
		<path fill="#323B3F" d="M295.4,458.1v-84.8c0-3.2-2.6-5.8-5.8-5.8h-6.7c-3.2,0-5.8,2.6-5.8,5.8v84.8c0,3.2,2.6,5.8,5.8,5.8h6.7
			C292.8,463.9,295.4,461.3,295.4,458.1z"/>
		<path fill="#323B3F" d="M331.7,458.1v-84.8c0-3.2-2.6-5.8-5.8-5.8h-6.7c-3.2,0-5.8,2.6-5.8,5.8v84.8c0,3.2,2.6,5.8,5.8,5.8h6.7
			C329.1,463.9,331.7,461.3,331.7,458.1z"/>
		<ellipse fill="#E8D4A5" cx="304.4" cy="438.4" rx="24.6" ry="31.7"/>
		<ellipse fill="#E8D4A5" cx="304.4" cy="447.9" rx="9.7" ry="28.8"/>
		<ellipse fill="#6D6357" cx="304.3" cy="435.1" rx="24.6" ry="28.4"/>
	</g>
	<g id="m2">
		<path fill="#E8D4A5" d="M345.9,454.5h11.3c5.3,0,9.7-4.3,9.7-9.7v0c0-5.3-4.3-9.7-9.7-9.7h-11.3c-5.3,0-9.7,4.3-9.7,9.7v0
			C336.2,450.1,340.6,454.5,345.9,454.5z"/>
		<path fill="#323B3F" d="M261.3,389.7v-19.1c0-3.2,2.6-5.8,5.8-5.8h75.2c3.2,0,5.8,2.6,5.8,5.8v19.1c0,3.2-2.6,5.8-5.8,5.8h-75.2
			C263.9,395.5,261.3,392.9,261.3,389.7z"/>
		<path fill="#323B3F" d="M277.4,377.1V358c0-3.2,2.6-5.8,5.8-5.8h43.1c3.2,0,5.8,2.6,5.8,5.8v19.1c0,3.2-2.6,5.8-5.8,5.8h-43.1
			C280,382.9,277.4,380.3,277.4,377.1z"/>
		<path fill="#6D6357" d="M326.2,499.4L326.2,499.4c7.3,0,13.2-5.9,13.2-13.2v-47.7c0-7.3-5.9-13.2-13.2-13.2h0
			c-7.3,0-13.2,5.9-13.2,13.2v47.7C313,493.5,318.9,499.4,326.2,499.4z"/>
		<path fill="#6D6357" d="M283.2,472.9L283.2,472.9c7.3,0,13.2-5.9,13.2-13.2v-47.7c0-7.3-5.9-13.2-13.2-13.2h0
			c-7.3,0-13.2,5.9-13.2,13.2v47.7C270.1,467,276,472.9,283.2,472.9z"/>
		<path fill="#91BA9B" d="M294.3,463.6h20.8c18.2,0,33-14.8,33-33v-2c0-18.2-14.8-33-33-33h-20.8c-18.2,0-33,14.8-33,33v2
			C261.3,448.8,276.1,463.6,294.3,463.6z"/>
		<path fill="#91BA9B" d="M345.6,435.1h5.1c7.5,0,13.5-6.1,13.5-13.5v-4.5c0-7.5-6.1-13.5-13.5-13.5h-5.1c-7.5,0-13.5,6.1-13.5,13.5
			v4.5C332.1,429.1,338.1,435.1,345.6,435.1z"/>
		<path fill="#91BA9B" d="M258.8,481.9h5.1c7.5,0,13.5-6.1,13.5-13.5v-42.7c0-7.5-6.1-13.5-13.5-13.5h-5.1
			c-7.5,0-13.5,6.1-13.5,13.5v42.7C245.3,475.9,251.3,481.9,258.8,481.9z"/>
		<path fill="#E8D4A5" d="M255.7,501.3H267c5.3,0,9.7-4.3,9.7-9.7v0c0-5.3-4.3-9.7-9.7-9.7h-11.3c-5.3,0-9.7,4.3-9.7,9.7v0
			C246,496.9,250.3,501.3,255.7,501.3z"/>
		<path fill="#323B3F" d="M313.7,458.1v-84.8c0-3.2,2.6-5.8,5.8-5.8h6.7c3.2,0,5.8,2.6,5.8,5.8v84.8c0,3.2-2.6,5.8-5.8,5.8h-6.7
			C316.3,463.9,313.7,461.3,313.7,458.1z"/>
		<path fill="#323B3F" d="M277.4,458.1v-84.8c0-3.2,2.6-5.8,5.8-5.8h6.7c3.2,0,5.8,2.6,5.8,5.8v84.8c0,3.2-2.6,5.8-5.8,5.8h-6.7
			C280,463.9,277.4,461.3,277.4,458.1z"/>
		<ellipse fill="#E8D4A5" cx="304.7" cy="438.4" rx="24.6" ry="31.7"/>
		<ellipse fill="#E8D4A5" cx="304.7" cy="447.9" rx="9.7" ry="28.8"/>
		<ellipse fill="#6D6357" cx="304.8" cy="435.1" rx="24.6" ry="28.4"/>
	</g>
	<g id="m1">
		<path fill="#E8D4A5" d="M263.2,463.9h-11.3c-5.3,0-9.7-4.3-9.7-9.7v0c0-5.3,4.3-9.7,9.7-9.7h11.3c5.3,0,9.7,4.3,9.7,9.7v0
			C272.9,459.5,268.5,463.9,263.2,463.9z"/>
		<path fill="#323B3F" d="M347.8,390.4v-19.1c0-3.2-2.6-5.8-5.8-5.8h-75.2c-3.2,0-5.8,2.6-5.8,5.8v19.1c0,3.2,2.6,5.8,5.8,5.8H342
			C345.2,396.2,347.8,393.6,347.8,390.4z"/>
		<path fill="#323B3F" d="M331.7,377.8v-19.1c0-3.2-2.6-5.8-5.8-5.8h-43.1c-3.2,0-5.8,2.6-5.8,5.8v19.1c0,3.2,2.6,5.8,5.8,5.8h43.1
			C329.1,383.6,331.7,380.9,331.7,377.8z"/>
		<path fill="#6D6357" d="M282.9,482.6L282.9,482.6c-7.3,0-13.2-5.9-13.2-13.2v-30.2c0-7.3,5.9-13.2,13.2-13.2h0
			c7.3,0,13.2,5.9,13.2,13.2v30.2C296.1,476.7,290.2,482.6,282.9,482.6z"/>
		<path fill="#6D6357" d="M325.9,481.6L325.9,481.6c-7.3,0-13.2-5.9-13.2-13.2v-47.7c0-7.3,5.9-13.2,13.2-13.2h0
			c7.3,0,13.2,5.9,13.2,13.2v47.7C339,475.7,333.1,481.6,325.9,481.6z"/>
		<path fill="#91BA9B" d="M314.8,464.2H294c-18.2,0-33-14.8-33-33v-2c0-18.2,14.8-33,33-33h20.8c18.2,0,33,14.8,33,33v2
			C347.8,449.5,333,464.2,314.8,464.2z"/>
		<path fill="#91BA9B" d="M263.5,444.6h-5.1c-7.5,0-13.5-6.1-13.5-13.5v-4.5c0-7.5,6.1-13.5,13.5-13.5h5.1c7.5,0,13.5,6.1,13.5,13.5
			v4.5C277,438.5,271,444.6,263.5,444.6z"/>
		<path fill="#91BA9B" d="M350.3,462.8h-5.1c-7.5,0-13.5-6.1-13.5-13.5v-20.8c0-7.5,6.1-13.5,13.5-13.5h5.1
			c7.5,0,13.5,6.1,13.5,13.5v20.8C363.8,456.8,357.8,462.8,350.3,462.8z"/>
		<path fill="#E8D4A5" d="M353.4,482.2h-11.3c-5.3,0-9.7-4.3-9.7-9.7v0c0-5.3,4.3-9.7,9.7-9.7h11.3c5.3,0,9.7,4.3,9.7,9.7v0
			C363.1,477.8,358.8,482.2,353.4,482.2z"/>
		<path fill="#323B3F" d="M295.4,458.8V374c0-3.2-2.6-5.8-5.8-5.8h-6.7c-3.2,0-5.8,2.6-5.8,5.8v84.8c0,3.2,2.6,5.8,5.8,5.8h6.7
			C292.8,464.6,295.4,461.9,295.4,458.8z"/>
		<path fill="#323B3F" d="M331.7,458.8V374c0-3.2-2.6-5.8-5.8-5.8h-6.7c-3.2,0-5.8,2.6-5.8,5.8v84.8c0,3.2,2.6,5.8,5.8,5.8h6.7
			C329.1,464.6,331.7,461.9,331.7,458.8z"/>
		<ellipse fill="#E8D4A5" cx="304.4" cy="439.1" rx="24.6" ry="31.7"/>
		<ellipse fill="#E8D4A5" cx="304.4" cy="448.6" rx="9.7" ry="28.8"/>
		<ellipse fill="#6D6357" cx="304.3" cy="435.8" rx="24.6" ry="28.4"/>
	</g>
</g>
<path class="path" fill="none" stroke="#3A53A4" stroke-miterlimit="10" d="M1276,173.9C1070.7,76.2,14.5-53.2,37.3,177.7
	c20.1,203.2,387.4,70,415.5,190.5c23.7,101.5-275.2,150.4-261.1,296.5c14.6,150.8,956.1,77.8,1090.3-17.8"/>
</svg>
