<?xml version="1.0" encoding="utf-8"?>
<!-- Generator: Adobe Illustrator 18.1.0, SVG Export Plug-In . SVG Version: 6.00 Build 0)  -->
<svg version="1.1" id="Layer_1" xmlns="http://www.w3.org/2000/svg" xmlns:xlink="http://www.w3.org/1999/xlink" x="0px" y="0px"
	 viewBox="0 0 595.3 841.9" enable-background="new 0 0 595.3 841.9" xml:space="preserve">
<g>
	<g id="m3">
		<path fill="#E8D4A5" d="M-13.2-20.8v-5.8c0-2.7,2.2-4.9,4.9-4.9h0c2.7,0,4.9,2.2,4.9,4.9v5.8c0,2.7-2.2,4.9-4.9,4.9h0
			C-10.9-15.8-13.2-18.1-13.2-20.8z"/>
		<path fill="#323B3F" d="M22.7,22.3l4.1,0c3.2,0,5.8-2.6,5.8-5.8v-32.6c0-3.2-2.6-5.8-5.8-5.8h-4.1c-3.2,0-5.8,2.6-5.8,5.8v32.6
			C16.9,19.7,19.5,22.3,22.7,22.3z"/>
		<path fill="#323B3F" d="M29.1,14.1h4.1c3.2,0,5.8-2.6,5.8-5.8V-7.9c0-3.2-2.6-5.8-5.8-5.8h-4.1c-3.2,0-5.8,2.6-5.8,5.8V8.3
			C23.3,11.5,25.9,14.1,29.1,14.1z"/>
		<path fill="#6D6357" d="M-36-10.7L-36-10.7c0-3.7,3-6.7,6.7-6.7H-5c3.7,0,6.7,3,6.7,6.7v0C1.7-7-1.3-4-5-4h-24.3
			C-33-4-36-7-36-10.7z"/>
		<path fill="#6D6357" d="M-22.5,11.1L-22.5,11.1c0-3.7,3-6.7,6.7-6.7H8.4c3.7,0,6.7,3,6.7,6.7v0c0,3.7-3,6.7-6.7,6.7h-24.3
			C-19.5,17.9-22.5,14.8-22.5,11.1z"/>
		<path fill="#91BA9B" d="M-17.8,5v-9.6c0-9.6,7.8-17.3,17.3-17.3h0c9.6,0,17.3,7.8,17.3,17.3V5c0,9.6-7.8,17.3-17.3,17.3h0
			C-10,22.3-17.8,14.6-17.8,5z"/>
		<path fill="#91BA9B" d="M-3.3-21.8V-22c0-4.4,3.6-8,8-8h0c4.4,0,8,3.6,8,8v0.3c0,4.4-3.6,8-8,8h0C0.3-13.7-3.3-17.3-3.3-21.8z"/>
		<path fill="#91BA9B" d="M-27.1,22.3L-27.1,22.3c0-4.5,3.7-8.2,8.2-8.2H0.2c4.5,0,8.2,3.7,8.2,8.2v0c0,4.5-3.7,8.2-8.2,8.2H-19
			C-23.5,30.5-27.1,26.8-27.1,22.3z"/>
		<path fill="#E8D4A5" d="M-37,25.2v-5.8c0-2.7,2.2-4.9,4.9-4.9h0c2.7,0,4.9,2.2,4.9,4.9v5.8c0,2.7-2.2,4.9-4.9,4.9h0
			C-34.8,30.1-37,27.9-37,25.2z"/>
		<path fill="#323B3F" d="M-13.3-4.4h39.7c2.6,0,4.7-2.1,4.7-4.7v0c0-2.6-2.1-4.7-4.7-4.7h-39.7c-2.6,0-4.7,2.1-4.7,4.7v0
			C-18-6.5-15.9-4.4-13.3-4.4z"/>
		<path fill="#323B3F" d="M-13.3,14.1h39.7c2.6,0,4.7-2.1,4.7-4.7v0c0-2.6-2.1-4.7-4.7-4.7h-39.7c-2.6,0-4.7,2.1-4.7,4.7v0
			C-18,12-15.9,14.1-13.3,14.1z"/>
		<ellipse fill="#E8D4A5" cx="-5" cy="0.2" rx="16.1" ry="12.5"/>
		<ellipse fill="#E8D4A5" cx="-9.8" cy="0.2" rx="14.7" ry="4.9"/>
		<ellipse fill="#6D6357" cx="-3.3" cy="0.2" rx="14.5" ry="12.5"/>
	</g>
	<g id="m2">
		<path fill="#E8D4A5" d="M-13.2,21.3v5.8c0,2.7,2.2,4.9,4.9,4.9h0c2.7,0,4.9-2.2,4.9-4.9v-5.8c0-2.7-2.2-4.9-4.9-4.9h0
			C-10.9,16.4-13.2,18.6-13.2,21.3z"/>
		<path fill="#323B3F" d="M22.7-21.7h4.1c3.2,0,5.8,2.6,5.8,5.8v32.6c0,3.2-2.6,5.8-5.8,5.8h-4.1c-3.2,0-5.8-2.6-5.8-5.8v-32.6
			C16.9-19.1,19.5-21.7,22.7-21.7z"/>
		<path fill="#323B3F" d="M29.1-13.6h4.1c3.2,0,5.8,2.6,5.8,5.8V8.5c0,3.2-2.6,5.8-5.8,5.8h-4.1c-3.2,0-5.8-2.6-5.8-5.8V-7.8
			C23.3-11,25.9-13.6,29.1-13.6z"/>
		<path fill="#6D6357" d="M-36,11.3L-36,11.3c0,3.7,3,6.7,6.7,6.7H-5c3.7,0,6.7-3,6.7-6.7v0c0-3.7-3-6.7-6.7-6.7h-24.3
			C-33,4.6-36,7.6-36,11.3z"/>
		<path fill="#6D6357" d="M-22.5-10.6L-22.5-10.6c0,3.7,3,6.7,6.7,6.7H8.4c3.7,0,6.7-3,6.7-6.7v0c0-3.7-3-6.7-6.7-6.7h-24.3
			C-19.5-17.3-22.5-14.3-22.5-10.6z"/>
		<path fill="#91BA9B" d="M-17.8-4.4v9.6c0,9.6,7.8,17.3,17.3,17.3h0c9.6,0,17.3-7.8,17.3-17.3v-9.6c0-9.6-7.8-17.3-17.3-17.3h0
			C-10-21.7-17.8-14-17.8-4.4z"/>
		<path fill="#91BA9B" d="M-3.3,22.3v0.3c0,4.4,3.6,8,8,8h0c4.4,0,8-3.6,8-8v-0.3c0-4.4-3.6-8-8-8h0C0.3,14.3-3.3,17.9-3.3,22.3z"/>
		<path fill="#91BA9B" d="M-27.1-21.7L-27.1-21.7c0,4.5,3.7,8.2,8.2,8.2H0.2c4.5,0,8.2-3.7,8.2-8.2v0c0-4.5-3.7-8.2-8.2-8.2H-19
			C-23.5-29.9-27.1-26.3-27.1-21.7z"/>
		<path fill="#E8D4A5" d="M-37-24.6v5.8c0,2.7,2.2,4.9,4.9,4.9h0c2.7,0,4.9-2.2,4.9-4.9v-5.8c0-2.7-2.2-4.9-4.9-4.9h0
			C-34.8-29.5-37-27.3-37-24.6z"/>
		<path fill="#323B3F" d="M-13.3,5h39.7c2.6,0,4.7,2.1,4.7,4.7v0c0,2.6-2.1,4.7-4.7,4.7l-39.7,0c-2.6,0-4.7-2.1-4.7-4.7v0
			C-18,7.1-15.9,5-13.3,5z"/>
		<path fill="#323B3F" d="M-13.3-13.6h39.7c2.6,0,4.7,2.1,4.7,4.7v0c0,2.6-2.1,4.7-4.7,4.7l-39.7,0c-2.6,0-4.7-2.1-4.7-4.7v0
			C-18-11.5-15.9-13.6-13.3-13.6z"/>
		<ellipse fill="#E8D4A5" cx="-5" cy="0.4" rx="16.1" ry="12.5"/>
		<ellipse fill="#E8D4A5" cx="-9.8" cy="0.4" rx="14.7" ry="4.9"/>
		<ellipse fill="#6D6357" cx="-3.3" cy="0.4" rx="14.5" ry="12.5"/>
	</g>
	<g id="m1">
		<path fill="#E8D4A5" d="M-18-20.8v-5.8c0-2.7,2.2-4.9,4.9-4.9h0c2.7,0,4.9,2.2,4.9,4.9v5.8c0,2.7-2.2,4.9-4.9,4.9h0
			C-15.7-15.8-18-18.1-18-20.8z"/>
		<path fill="#323B3F" d="M22.3,22.3l4.1,0c3.2,0,5.8-2.6,5.8-5.8v-32.6c0-3.2-2.6-5.8-5.8-5.8h-4.1c-3.2,0-5.8,2.6-5.8,5.8v32.6
			C16.5,19.7,19.1,22.3,22.3,22.3z"/>
		<path fill="#323B3F" d="M28.8,14.1h4.1c3.2,0,5.8-2.6,5.8-5.8V-7.9c0-3.2-2.6-5.8-5.8-5.8h-4.1c-3.2,0-5.8,2.6-5.8,5.8V8.3
			C23,11.5,25.6,14.1,28.8,14.1z"/>
		<path fill="#6D6357" d="M-27.5-10.7L-27.5-10.7c0-3.7,3-6.7,6.7-6.7h15.4c3.7,0,6.7,3,6.7,6.7v0C1.3-7-1.7-4-5.4-4h-15.4
			C-24.5-4-27.5-7-27.5-10.7z"/>
		<path fill="#6D6357" d="M-27,11.1L-27,11.1c0-3.7,3-6.7,6.7-6.7H4c3.7,0,6.7,3,6.7,6.7v0c0,3.7-3,6.7-6.7,6.7h-24.3
			C-24,17.9-27,14.8-27,11.1z"/>
		<path fill="#91BA9B" d="M-18.1,5v-9.6c0-9.6,7.8-17.3,17.3-17.3h0c9.6,0,17.3,7.8,17.3,17.3V5c0,9.6-7.8,17.3-17.3,17.3h0
			C-10.4,22.3-18.1,14.6-18.1,5z"/>
		<path fill="#91BA9B" d="M-8.1-21.8V-22c0-4.4,3.6-8,8-8h0c4.4,0,8,3.6,8,8v0.3c0,4.4-3.6,8-8,8h0C-4.5-13.7-8.1-17.3-8.1-21.8z"/>
		<path fill="#91BA9B" d="M-17.4,22.3L-17.4,22.3c0-4.5,3.7-8.2,8.2-8.2h8c4.5,0,8.2,3.7,8.2,8.2v0c0,4.5-3.7,8.2-8.2,8.2h-8
			C-13.8,30.5-17.4,26.8-17.4,22.3z"/>
		<path fill="#E8D4A5" d="M-27.3,25.2v-5.8c0-2.7,2.2-4.9,4.9-4.9h0c2.7,0,4.9,2.2,4.9,4.9v5.8c0,2.7-2.2,4.9-4.9,4.9h0
			C-25.1,30.1-27.3,27.9-27.3,25.2z"/>
		<path fill="#323B3F" d="M-13.6-4.4h39.7c2.6,0,4.7-2.1,4.7-4.7v0c0-2.6-2.1-4.7-4.7-4.7h-39.7c-2.6,0-4.7,2.1-4.7,4.7v0
			C-18.3-6.5-16.2-4.4-13.6-4.4z"/>
		<path fill="#323B3F" d="M-13.6,14.1h39.7c2.6,0,4.7-2.1,4.7-4.7v0c0-2.6-2.1-4.7-4.7-4.7h-39.7c-2.6,0-4.7,2.1-4.7,4.7v0
			C-18.3,12-16.2,14.1-13.6,14.1z"/>
		<ellipse fill="#E8D4A5" cx="-5.3" cy="0.2" rx="16.1" ry="12.5"/>
		<ellipse fill="#E8D4A5" cx="-10.2" cy="0.2" rx="14.7" ry="4.9"/>
		<ellipse fill="#6D6357" cx="-3.7" cy="0.2" rx="14.5" ry="12.5"/>
	</g>
</g>
<path id="path" fill="none" stroke="#3A53A4" stroke-miterlimit="10" d="M854,137.9c-205.3-97.6-636-100-644,38s102,140.4,134,223
	s-51.7,142.6,17.7,265.8S703.8,801.5,838,705.9"/>
</svg>
