<?xml version="1.0" encoding="utf-8"?>
<!-- Generator: Adobe Illustrator 18.1.0, SVG Export Plug-In . SVG Version: 6.00 Build 0)  -->
<svg version="1.1" id="Layer_1" xmlns="http://www.w3.org/2000/svg" xmlns:xlink="http://www.w3.org/1999/xlink" x="0px" y="0px"
	 viewBox="0 0 595.3 841.9" enable-background="new 0 0 595.3 841.9" xml:space="preserve">
<path id="path" fill="none" stroke="#3A53A4" stroke-miterlimit="10" d="M878,163.9C674.6,80.1,323.5-11,276,142.9
	c-29,94,36,139.9,36,233.3c0,97.1-70.3,173.1-36,223.9c79,116.9,485,60.7,612,21.9"/>
<g>
	<g id="ski_1">
		<path fill="#323B3F" d="M-24.3-8.2V-11c0-2.3,1.9-4.2,4.2-4.2H3.3c2.3,0,4.2,1.9,4.2,4.2v2.8C7.5-5.9,5.6-4,3.3-4H-20
			C-22.4-4-24.3-5.8-24.3-8.2z"/>
		<path fill="#323B3F" d="M-24.3,11.7V8.9c0-2.3,1.9-4.2,4.2-4.2H3.3c2.3,0,4.2,1.9,4.2,4.2v2.8c0,2.3-1.9,4.2-4.2,4.2H-20
			C-22.4,15.9-24.3,14-24.3,11.7z"/>
		<path fill="#6D6357" d="M-11.9,11.7V8.9c0-2.3,1.9-4.2,4.2-4.2h23.3c2.3,0,4.2,1.9,4.2,4.2v2.8c0,2.3-1.9,4.2-4.2,4.2H-7.7
			C-10,15.9-11.9,14-11.9,11.7z"/>
		<path fill="#6D6357" d="M-11.9-8.2V-11c0-2.3,1.9-4.2,4.2-4.2h23.3c2.3,0,4.2,1.9,4.2,4.2v2.8C19.9-5.9,18-4,15.7-4H-7.7
			C-10-4-11.9-5.8-11.9-8.2z"/>
		<path fill="#323B3F" d="M64.5-15.8h4c1,0,1.8-0.8,1.8-1.8v-2.1c0-1-0.8-1.8-1.8-1.8h-4c-1,0-1.8,0.8-1.8,1.8v2.1
			C62.7-16.6,63.5-15.8,64.5-15.8z"/>
		<path fill="#91BA9B" d="M13.8,5.3v-9.9c0-5.7,4.6-10.4,10.4-10.4h9.6c5.7,0,10.4,4.6,10.4,10.4v9.9c0,5.7-4.6,10.4-10.4,10.4h-9.6
			C18.4,15.6,13.8,11,13.8,5.3z"/>
		<path fill="#323B3F" d="M-4.6,20.8H65c0.8,0,1.5-0.6,1.5-1.5l0,0c0-0.8-0.6-1.5-1.5-1.5H-4.6c-0.8,0-1.5,0.6-1.5,1.5l0,0
			C-6.1,20.2-5.4,20.8-4.6,20.8z"/>
		<path fill="#323B3F" d="M-4.6-17.2H65c0.8,0,1.5-0.6,1.5-1.5l0,0c0-0.8-0.6-1.5-1.5-1.5H-4.6c-0.8,0-1.5,0.6-1.5,1.5l0,0
			C-6.1-17.9-5.4-17.2-4.6-17.2z"/>
		<path fill="#323B3F" d="M-65.8-6.2h47.1c1,0,1.8-0.8,1.8-1.8v-3.2c0-1-0.8-1.8-1.8-1.8h-47.1c-1,0-1.8,0.8-1.8,1.8V-8
			C-67.6-7-66.8-6.2-65.8-6.2z"/>
		<path fill="#323B3F" d="M-65.8,13.7h47.1c1,0,1.8-0.8,1.8-1.8V8.7c0-1-0.8-1.8-1.8-1.8h-47.1c-1,0-1.8,0.8-1.8,1.8v3.2
			C-67.6,12.8-66.8,13.7-65.8,13.7z"/>
		<ellipse fill="#E8D4A5" cx="8.8" cy="0.3" rx="11.2" ry="8.7"/>
		<ellipse fill="#E8D4A5" cx="5.4" cy="0.3" rx="10.2" ry="3.4"/>
		<ellipse fill="#323B3F" cx="11.7" cy="0.3" rx="10.2" ry="9.9"/>
		<path fill="#E8D4A5" d="M-7.3-16.7v-4c0-1.9,1.6-3.4,3.4-3.4l0,0c1.9,0,3.4,1.6,3.4,3.4v4c0,1.9-1.6,3.4-3.4,3.4l0,0
			C-5.8-13.3-7.3-14.8-7.3-16.7z"/>
		<path fill="#E8D4A5" d="M-7.3,21.4v-4c0-1.9,1.6-3.4,3.4-3.4l0,0c1.9,0,3.4,1.6,3.4,3.4v4c0,1.9-1.6,3.4-3.4,3.4l0,0
			C-5.8,24.8-7.3,23.2-7.3,21.4z"/>
		<path fill="#323B3F" d="M2.9-4.7v9.8c0,1-0.8,1.8-1.8,1.8h-1.5c-1,0-1.8-0.8-1.8-1.8v-9.8c0-1,0.8-1.8,1.8-1.8h1.5
			C2.1-6.4,2.9-5.6,2.9-4.7z"/>
		<path fill="#91BA9B" d="M-0.9-17.3v-2.8c0-2.3,1.9-4.2,4.2-4.2h27.8c2.3,0,4.2,1.9,4.2,4.2v2.8c0,2.3-1.9,4.2-4.2,4.2H3.3
			C1-13.1-0.9-14.9-0.9-17.3z"/>
		<path fill="#91BA9B" d="M-0.9,20.7v-2.8c0-2.3,1.9-4.2,4.2-4.2h27.8c2.3,0,4.2,1.9,4.2,4.2v2.8c0,2.3-1.9,4.2-4.2,4.2H3.3
			C1,25-0.9,23.1-0.9,20.7z"/>
		<path fill="#323B3F" d="M64.5,22.2h4c1,0,1.8-0.8,1.8-1.8v-2.1c0-1-0.8-1.8-1.8-1.8h-4c-1,0-1.8,0.8-1.8,1.8v2.1
			C62.7,21.4,63.5,22.2,64.5,22.2z"/>
	</g>
	<g id="ski_2">
		<path fill="#323B3F" d="M-24.3-8.2V-11c0-2.3,1.9-4.2,4.2-4.2H3.3c2.3,0,4.2,1.9,4.2,4.2v2.8C7.5-5.9,5.6-4,3.3-4H-20
			C-22.4-4-24.3-5.8-24.3-8.2z"/>
		<path fill="#323B3F" d="M-24.3,11.7V8.9c0-2.3,1.9-4.2,4.2-4.2H3.3c2.3,0,4.2,1.9,4.2,4.2v2.8c0,2.3-1.9,4.2-4.2,4.2H-20
			C-22.4,15.9-24.3,14-24.3,11.7z"/>
		<path fill="#6D6357" d="M-11.9,11.7V8.9c0-2.3,1.9-4.2,4.2-4.2h23.3c2.3,0,4.2,1.9,4.2,4.2v2.8c0,2.3-1.9,4.2-4.2,4.2H-7.7
			C-10,15.9-11.9,14-11.9,11.7z"/>
		<path fill="#6D6357" d="M-11.9-8.2V-11c0-2.3,1.9-4.2,4.2-4.2h23.3c2.3,0,4.2,1.9,4.2,4.2v2.8C19.9-5.9,18-4,15.7-4H-7.7
			C-10-4-11.9-5.8-11.9-8.2z"/>
		<path fill="#323B3F" d="M64.5-15.8h4c1,0,1.8-0.8,1.8-1.8v-2.1c0-1-0.8-1.8-1.8-1.8h-4c-1,0-1.8,0.8-1.8,1.8v2.1
			C62.7-16.6,63.5-15.8,64.5-15.8z"/>
		<path fill="#91BA9B" d="M13.2,5.3v-9.9c0-5.7,4.6-10.4,10.4-10.4h9.6c5.7,0,10.4,4.6,10.4,10.4v9.9c0,5.7-4.6,10.4-10.4,10.4h-9.6
			C17.8,15.6,13.2,11,13.2,5.3z"/>
		<path fill="#323B3F" d="M-4.6,20.8H65c0.8,0,1.5-0.6,1.5-1.5l0,0c0-0.8-0.6-1.5-1.5-1.5H-4.6c-0.8,0-1.5,0.6-1.5,1.5l0,0
			C-6.1,20.2-5.4,20.8-4.6,20.8z"/>
		<path fill="#323B3F" d="M-4.6-17.2H65c0.8,0,1.5-0.6,1.5-1.5l0,0c0-0.8-0.6-1.5-1.5-1.5H-4.6c-0.8,0-1.5,0.6-1.5,1.5l0,0
			C-6.1-17.9-5.4-17.2-4.6-17.2z"/>
		<path fill="#323B3F" d="M-65.8-6.2h47.1c1,0,1.8-0.8,1.8-1.8v-3.2c0-1-0.8-1.8-1.8-1.8h-47.1c-1,0-1.8,0.8-1.8,1.8V-8
			C-67.6-7-66.8-6.2-65.8-6.2z"/>
		<path fill="#323B3F" d="M-65.8,13.7h47.1c1,0,1.8-0.8,1.8-1.8V8.7c0-1-0.8-1.8-1.8-1.8h-47.1c-1,0-1.8,0.8-1.8,1.8v3.2
			C-67.6,12.8-66.8,13.7-65.8,13.7z"/>
		<ellipse fill="#E8D4A5" cx="8.8" cy="0.3" rx="11.2" ry="8.7"/>
		<ellipse fill="#E8D4A5" cx="5.4" cy="0.3" rx="10.2" ry="3.4"/>
		<ellipse fill="#323B3F" cx="11.7" cy="0.3" rx="10.2" ry="9.9"/>
		<path fill="#E8D4A5" d="M-7.3-16.7v-4c0-1.9,1.6-3.4,3.4-3.4l0,0c1.9,0,3.4,1.6,3.4,3.4v4c0,1.9-1.6,3.4-3.4,3.4l0,0
			C-5.8-13.3-7.3-14.8-7.3-16.7z"/>
		<path fill="#E8D4A5" d="M-7.3,21.4v-4c0-1.9,1.6-3.4,3.4-3.4l0,0c1.9,0,3.4,1.6,3.4,3.4v4c0,1.9-1.6,3.4-3.4,3.4l0,0
			C-5.8,24.8-7.3,23.2-7.3,21.4z"/>
		<path fill="#323B3F" d="M2.9-4.7v9.8c0,1-0.8,1.8-1.8,1.8h-1.5c-1,0-1.8-0.8-1.8-1.8v-9.8c0-1,0.8-1.8,1.8-1.8h1.5
			C2.1-6.4,2.9-5.6,2.9-4.7z"/>
		<path fill="#91BA9B" d="M-0.9-17.3v-2.8c0-2.3,1.9-4.2,4.2-4.2h27.8c2.3,0,4.2,1.9,4.2,4.2v2.8c0,2.3-1.9,4.2-4.2,4.2H3.3
			C1-13.1-0.9-14.9-0.9-17.3z"/>
		<path fill="#91BA9B" d="M-0.9,20.7v-2.8c0-2.3,1.9-4.2,4.2-4.2h27.8c2.3,0,4.2,1.9,4.2,4.2v2.8c0,2.3-1.9,4.2-4.2,4.2H3.3
			C1,25-0.9,23.1-0.9,20.7z"/>
		<path fill="#323B3F" d="M64.5,22.2h4c1,0,1.8-0.8,1.8-1.8v-2.1c0-1-0.8-1.8-1.8-1.8h-4c-1,0-1.8,0.8-1.8,1.8v2.1
			C62.7,21.4,63.5,22.2,64.5,22.2z"/>
	</g>
	<g id="ski_3">
		<path fill="#323B3F" d="M4.8,20.8h39.6c0.8,0,1.5-0.6,1.5-1.5l0,0c0-0.8-0.6-1.5-1.5-1.5H4.7c-0.8,0-1.5,0.6-1.5,1.5l0,0
			C3.3,20.2,4,20.8,4.8,20.8z"/>
		<path fill="#323B3F" d="M43.8,22.2h4c1,0,1.8-0.8,1.8-1.8v-2.1c0-1-0.8-1.8-1.8-1.8h-4c-1,0-1.8,0.8-1.8,1.8v2.1
			C42,21.4,42.8,22.2,43.8,22.2z"/>
		<path fill="#323B3F" d="M-21.8-8.2V-11c0-2.3,1.9-4.2,4.2-4.2H5.8c2.3,0,4.2,1.9,4.2,4.2v2.8C10.1-5.9,8.1-4,5.8-4h-23.3
			C-19.9-4-21.8-5.8-21.8-8.2z"/>
		<path fill="#323B3F" d="M-21.8,11.7V8.9c0-2.3,1.9-4.2,4.2-4.2H5.8c2.3,0,4.2,1.9,4.2,4.2v2.8c0,2.3-1.9,4.2-4.2,4.2h-23.3
			C-19.9,15.9-21.8,14-21.8,11.7z"/>
		<path fill="#6D6357" d="M-9.4,11.7V8.9c0-2.3,1.9-4.2,4.2-4.2h23.3c2.3,0,4.2,1.9,4.2,4.2v2.8c0,2.3-1.9,4.2-4.2,4.2H-5.1
			C-7.5,15.9-9.4,14-9.4,11.7z"/>
		<path fill="#6D6357" d="M-9.4-8.2V-11c0-2.3,1.9-4.2,4.2-4.2h23.3c2.3,0,4.2,1.9,4.2,4.2v2.8c0,2.3-1.9,4.2-4.2,4.2H-5.1
			C-7.5-4-9.4-5.8-9.4-8.2z"/>
		<path fill="#91BA9B" d="M6.9,5.3v-9.9c0-5.7,4.6-10.4,10.4-10.4h9.6c5.7,0,10.4,4.6,10.4,10.4v9.9c0,5.7-4.6,10.4-10.4,10.4h-9.6
			C11.5,15.6,6.9,11,6.9,5.3z"/>
		<path fill="#323B3F" d="M-63.4-6.2h47.1c1,0,1.8-0.8,1.8-1.8v-3.2c0-1-0.8-1.8-1.8-1.8h-47.1c-1,0-1.8,0.8-1.8,1.8V-8
			C-65.2-7-64.4-6.2-63.4-6.2z"/>
		<path fill="#323B3F" d="M-63.4,13.7h47.1c1,0,1.8-0.8,1.8-1.8V8.7c0-1-0.8-1.8-1.8-1.8h-47.1c-1,0-1.8,0.8-1.8,1.8v3.2
			C-65.2,12.8-64.4,13.7-63.4,13.7z"/>
		<ellipse fill="#E8D4A5" cx="8.9" cy="0.3" rx="11.2" ry="8.7"/>
		<ellipse fill="#E8D4A5" cx="5.6" cy="0.3" rx="10.2" ry="3.4"/>
		<ellipse fill="#323B3F" cx="11.8" cy="0.3" rx="10.2" ry="9.9"/>
		<path fill="#323B3F" d="M3.1-4.7v9.8c0,1-0.8,1.8-1.8,1.8h-1.5C-1.2,7-2,6.1-2,5.1v-9.8c0-1,0.8-1.8,1.8-1.8h1.5
			C2.3-6.4,3.1-5.6,3.1-4.7z"/>
		<path fill="#323B3F" d="M43.8-15.8h4c1,0,1.8-0.8,1.8-1.8v-2.1c0-1-0.8-1.8-1.8-1.8h-4c-1,0-1.8,0.8-1.8,1.8v2.1
			C42-16.6,42.8-15.8,43.8-15.8z"/>
		<path fill="#323B3F" d="M4.8-17.2h39.6c0.8,0,1.5-0.6,1.5-1.5l0,0c0-0.8-0.6-1.5-1.5-1.5H4.7c-0.8,0-1.5,0.6-1.5,1.5l0,0
			C3.3-17.9,4-17.2,4.8-17.2z"/>
		<path fill="#E8D4A5" d="M-7.5-16.7v-4c0-1.9,1.6-3.4,3.4-3.4l0,0c1.9,0,3.4,1.6,3.4,3.4v4c0,1.9-1.6,3.4-3.4,3.4l0,0
			C-5.9-13.3-7.5-14.8-7.5-16.7z"/>
		<path fill="#91BA9B" d="M-1.1-17.3v-2.8c0-2.3,1.9-4.2,4.2-4.2h22.6c2.3,0,4.2,1.9,4.2,4.2v2.8c0,2.3-1.9,4.2-4.2,4.2H3.1
			C0.8-13.1-1.1-14.9-1.1-17.3z"/>
		<path fill="#E8D4A5" d="M-7.5,21.4v-4c0-1.9,1.6-3.4,3.4-3.4l0,0c1.9,0,3.4,1.6,3.4,3.4v4c0,1.9-1.6,3.4-3.4,3.4l0,0
			C-5.9,24.8-7.5,23.2-7.5,21.4z"/>
		<path fill="#91BA9B" d="M-1.1,20.7v-2.8c0-2.3,1.9-4.2,4.2-4.2h22.6c2.3,0,4.2,1.9,4.2,4.2v2.8c0,2.3-1.9,4.2-4.2,4.2H3.1
			C0.8,25-1.1,23.1-1.1,20.7z"/>
	</g>
	<g id="ski_4">
		<path fill="#323B3F" d="M5.1,20.8h39.6c0.8,0,1.5-0.6,1.5-1.5l0,0c0-0.8-0.6-1.5-1.5-1.5H5c-0.8,0-1.5,0.6-1.5,1.5l0,0
			C3.6,20.2,4.3,20.8,5.1,20.8z"/>
		<path fill="#323B3F" d="M44.1,22.2h4c1,0,1.8-0.8,1.8-1.8v-2.1c0-1-0.8-1.8-1.8-1.8h-4c-1,0-1.8,0.8-1.8,1.8v2.1
			C42.3,21.4,43.1,22.2,44.1,22.2z"/>
		<path fill="#323B3F" d="M-21.5-8.2V-11c0-2.3,1.9-4.2,4.2-4.2H6.1c2.3,0,4.2,1.9,4.2,4.2v2.8C10.4-5.9,8.5-4,6.1-4h-23.3
			C-19.6-4-21.5-5.8-21.5-8.2z"/>
		<path fill="#323B3F" d="M-21.5,11.7V8.9c0-2.3,1.9-4.2,4.2-4.2H6.1c2.3,0,4.2,1.9,4.2,4.2v2.8c0,2.3-1.9,4.2-4.2,4.2h-23.3
			C-19.6,15.9-21.5,14-21.5,11.7z"/>
		<path fill="#6D6357" d="M-9.1,11.7V8.9c0-2.3,1.9-4.2,4.2-4.2h23.3c2.3,0,4.2,1.9,4.2,4.2v2.8c0,2.3-1.9,4.2-4.2,4.2H-4.8
			C-7.2,15.9-9.1,14-9.1,11.7z"/>
		<path fill="#6D6357" d="M-9.1-8.2V-11c0-2.3,1.9-4.2,4.2-4.2h23.3c2.3,0,4.2,1.9,4.2,4.2v2.8c0,2.3-1.9,4.2-4.2,4.2H-4.8
			C-7.2-4-9.1-5.8-9.1-8.2z"/>
		<path fill="#91BA9B" d="M7.2,5.3v-9.9c0-5.7,4.6-10.4,10.4-10.4h9.5c5.7,0,10.4,4.6,10.4,10.4v9.9c0,5.7-4.6,10.4-10.4,10.4h-9.5
			C11.8,15.6,7.2,11,7.2,5.3z"/>
		<path fill="#323B3F" d="M-63-6.2h47.1c1,0,1.8-0.8,1.8-1.8v-3.2c0-1-0.8-1.8-1.8-1.8H-63c-1,0-1.8,0.8-1.8,1.8V-8
			C-64.8-7-64-6.2-63-6.2z"/>
		<path fill="#323B3F" d="M-63,13.7h47.1c1,0,1.8-0.8,1.8-1.8V8.7c0-1-0.8-1.8-1.8-1.8H-63c-1,0-1.8,0.8-1.8,1.8v3.2
			C-64.8,12.8-64,13.7-63,13.7z"/>
		<ellipse fill="#E8D4A5" cx="9.2" cy="0.3" rx="11.2" ry="8.7"/>
		<ellipse fill="#E8D4A5" cx="5.9" cy="0.3" rx="10.2" ry="3.4"/>
		<ellipse fill="#323B3F" cx="12.2" cy="0.3" rx="10.2" ry="9.9"/>
		<path fill="#323B3F" d="M3.4-4.7v9.8c0,1-0.8,1.8-1.8,1.8H0.1c-1,0-1.8-0.8-1.8-1.8v-9.8c0-1,0.8-1.8,1.8-1.8h1.5
			C2.6-6.4,3.4-5.6,3.4-4.7z"/>
		<path fill="#323B3F" d="M44.1-15.8h4c1,0,1.8-0.8,1.8-1.8v-2.1c0-1-0.8-1.8-1.8-1.8h-4c-1,0-1.8,0.8-1.8,1.8v2.1
			C42.3-16.6,43.1-15.8,44.1-15.8z"/>
		<path fill="#323B3F" d="M5.1-17.2h39.6c0.8,0,1.5-0.6,1.5-1.5l0,0c0-0.8-0.6-1.5-1.5-1.5H5c-0.8,0-1.5,0.6-1.5,1.5l0,0
			C3.6-17.9,4.3-17.2,5.1-17.2z"/>
		<path fill="#E8D4A5" d="M-7.2-16.7v-4c0-1.9,1.6-3.4,3.4-3.4l0,0c1.9,0,3.4,1.6,3.4,3.4v4c0,1.9-1.6,3.4-3.4,3.4l0,0
			C-5.6-13.3-7.2-14.8-7.2-16.7z"/>
		<path fill="#91BA9B" d="M-0.8-17.3v-2.8c0-2.3,1.9-4.2,4.2-4.2H26c2.3,0,4.2,1.9,4.2,4.2v2.8c0,2.3-1.9,4.2-4.2,4.2H3.4
			C1.1-13.1-0.8-14.9-0.8-17.3z"/>
		<path fill="#E8D4A5" d="M-7.2,21.4v-4c0-1.9,1.6-3.4,3.4-3.4l0,0c1.9,0,3.4,1.6,3.4,3.4v4c0,1.9-1.6,3.4-3.4,3.4l0,0
			C-5.6,24.8-7.2,23.2-7.2,21.4z"/>
		<path fill="#91BA9B" d="M-0.8,20.7v-2.8c0-2.3,1.9-4.2,4.2-4.2H26c2.3,0,4.2,1.9,4.2,4.2v2.8c0,2.3-1.9,4.2-4.2,4.2H3.4
			C1.1,25-0.8,23.1-0.8,20.7z"/>
	</g>
	<g id="ski_5">
		<path fill="#323B3F" d="M8.2,20.8h27.1c0.8,0,1.5-0.6,1.5-1.5l0,0c0-0.8-0.6-1.5-1.5-1.5H8.2c-0.8,0-1.5,0.6-1.5,1.5l0,0
			C6.7,20.2,7.4,20.8,8.2,20.8z"/>
		<path fill="#323B3F" d="M34.8,22.2h4c1,0,1.8-0.8,1.8-1.8v-2.1c0-1-0.8-1.8-1.8-1.8h-4c-1,0-1.8,0.8-1.8,1.8v2.1
			C33,21.4,33.8,22.2,34.8,22.2z"/>
		<path fill="#323B3F" d="M-17.8-8.2V-11c0-2.3,1.9-4.2,4.2-4.2H9.8c2.3,0,4.2,1.9,4.2,4.2v2.8C14-5.9,12.1-4,9.8-4h-23.3
			C-15.9-4-17.8-5.8-17.8-8.2z"/>
		<path fill="#323B3F" d="M-17.8,11.7V8.9c0-2.3,1.9-4.2,4.2-4.2H9.8c2.3,0,4.2,1.9,4.2,4.2v2.8c0,2.3-1.9,4.2-4.2,4.2h-23.3
			C-15.9,15.9-17.8,14-17.8,11.7z"/>
		<path fill="#6D6357" d="M-5.4,11.7V8.9c0-2.3,1.9-4.2,4.2-4.2h23.3c2.3,0,4.2,1.9,4.2,4.2v2.8c0,2.3-1.9,4.2-4.2,4.2H-1.1
			C-3.5,15.9-5.4,14-5.4,11.7z"/>
		<path fill="#6D6357" d="M-5.4-8.2V-11c0-2.3,1.9-4.2,4.2-4.2h23.3c2.3,0,4.2,1.9,4.2,4.2v2.8c0,2.3-1.9,4.2-4.2,4.2H-1.1
			C-3.5-4-5.4-5.8-5.4-8.2z"/>
		<path fill="#91BA9B" d="M1.8,5.3v-9.9C1.8-10.3,6.5-15,12.2-15h9.6c5.7,0,10.4,4.6,10.4,10.4v9.9c0,5.7-4.6,10.4-10.4,10.4h-9.6
			C6.5,15.6,1.8,11,1.8,5.3z"/>
		<path fill="#323B3F" d="M-59.3-6.2h47.1c1,0,1.8-0.8,1.8-1.8v-3.2c0-1-0.8-1.8-1.8-1.8h-47.1c-1,0-1.8,0.8-1.8,1.8V-8
			C-61.2-7-60.4-6.2-59.3-6.2z"/>
		<path fill="#323B3F" d="M-59.3,13.7h47.1c1,0,1.8-0.8,1.8-1.8V8.7c0-1-0.8-1.8-1.8-1.8h-47.1c-1,0-1.8,0.8-1.8,1.8v3.2
			C-61.2,12.8-60.4,13.7-59.3,13.7z"/>
		<ellipse fill="#E8D4A5" cx="9.3" cy="0.3" rx="11.2" ry="8.7"/>
		<ellipse fill="#E8D4A5" cx="6" cy="0.3" rx="10.2" ry="3.4"/>
		<ellipse fill="#323B3F" cx="12.2" cy="0.3" rx="10.2" ry="9.9"/>
		<path fill="#323B3F" d="M3.5-4.7v9.8c0,1-0.8,1.8-1.8,1.8H0.2c-1,0-1.8-0.8-1.8-1.8v-9.8c0-1,0.8-1.8,1.8-1.8h1.5
			C2.7-6.4,3.5-5.6,3.5-4.7z"/>
		<path fill="#323B3F" d="M34.8-15.8h4c1,0,1.8-0.8,1.8-1.8v-2.1c0-1-0.8-1.8-1.8-1.8h-4c-1,0-1.8,0.8-1.8,1.8v2.1
			C33-16.6,33.8-15.8,34.8-15.8z"/>
		<path fill="#323B3F" d="M8.8-17.2h26.6c0.8,0,1.5-0.6,1.5-1.5l0,0c0-0.8-0.6-1.5-1.5-1.5H8.8c-0.8,0-1.5,0.6-1.5,1.5l0,0
			C7.2-17.9,7.9-17.2,8.8-17.2z"/>
		<path fill="#E8D4A5" d="M4.8-16.7v-4c0-1.9,1.6-3.4,3.4-3.4l0,0c1.9,0,3.4,1.6,3.4,3.4v4c0,1.9-1.6,3.4-3.4,3.4l0,0
			C6.4-13.3,4.8-14.8,4.8-16.7z"/>
		<path fill="#91BA9B" d="M11.3-17.3v-2.8c0-2.3,1.9-4.2,4.2-4.2h12.3c2.3,0,4.2,1.9,4.2,4.2v2.8c0,2.3-1.9,4.2-4.2,4.2H15.5
			C13.1-13.1,11.3-14.9,11.3-17.3z"/>
		<path fill="#E8D4A5" d="M3.6,21.4v-4C3.6,15.5,5.1,14,7,14l0,0c1.9,0,3.4,1.6,3.4,3.4v4c0,1.9-1.6,3.4-3.4,3.4l0,0
			C5.1,24.8,3.6,23.2,3.6,21.4z"/>
		<path fill="#91BA9B" d="M10,20.7v-2.8c0-2.3,1.9-4.2,4.2-4.2h14.9c2.3,0,4.2,1.9,4.2,4.2v2.8c0,2.3-1.9,4.2-4.2,4.2H14.2
			C11.8,25,10,23.1,10,20.7z"/>
	</g>
</g>
</svg>
