<?xml version="1.0" encoding="utf-8"?>
<!-- Generator: Adobe Illustrator 18.1.0, SVG Export Plug-In . SVG Version: 6.00 Build 0)  -->
<svg version="1.1" id="Layer_1" xmlns="http://www.w3.org/2000/svg" xmlns:xlink="http://www.w3.org/1999/xlink" x="0px" y="0px"
	 viewBox="0 0 595.3 841.9" enable-background="new 0 0 595.3 841.9" xml:space="preserve">
<path  class="path" fill="none" stroke="#3A53A4" stroke-miterlimit="10" d="M668,107.9c-203.4-83.8-582-104-576.5,57c17.5,180,174.6,90,190,169.6
	c4.3,91.1-96.5,106.1-35.6,231.2C328.5,675.9,528,643.7,655,604.9"/>
<g>
	<g id="ski_1">
		<path fill="#323B3F" d="M276.6,499.7h-6.1c-5.1,0-9.2-4.1-9.2-9.2v-50.8c0-5.1,4.1-9.2,9.2-9.2h6.1c5.1,0,9.2,4.1,9.2,9.2v50.8
			C285.8,495.6,281.7,499.7,276.6,499.7z"/>
		<path fill="#323B3F" d="M319.9,499.7h-6.1c-5.1,0-9.2-4.1-9.2-9.2v-50.8c0-5.1,4.1-9.2,9.2-9.2h6.1c5.1,0,9.2,4.1,9.2,9.2v50.8
			C329.1,495.6,325,499.7,319.9,499.7z"/>
		<path fill="#6D6357" d="M319.9,472.8h-6.1c-5.1,0-9.2-4.1-9.2-9.2v-50.8c0-5.1,4.1-9.2,9.2-9.2h6.1c5.1,0,9.2,4.1,9.2,9.2v50.8
			C329.1,468.6,325,472.8,319.9,472.8z"/>
		<path fill="#6D6357" d="M276.6,472.8h-6.1c-5.1,0-9.2-4.1-9.2-9.2v-50.8c0-5.1,4.1-9.2,9.2-9.2h6.1c5.1,0,9.2,4.1,9.2,9.2v50.8
			C285.8,468.6,281.7,472.8,276.6,472.8z"/>
		<path fill="#323B3F" d="M260,306.6v-8.7c0-2.2-1.8-3.9-3.9-3.9h-4.6c-2.2,0-3.9,1.8-3.9,3.9v8.7c0,2.2,1.8,3.9,3.9,3.9h4.6
			C258.2,310.5,260,308.8,260,306.6z"/>
		<path fill="#91BA9B" d="M305.9,417h-21.5c-12.4,0-22.6-10.1-22.6-22.6v-20.8c0-12.4,10.1-22.6,22.6-22.6h21.5
			c12.4,0,22.6,10.1,22.6,22.6v20.8C328.5,406.8,318.4,417,305.9,417z"/>
		<path fill="#323B3F" d="M339.7,456.9V305.5c0-1.8-1.4-3.3-3.3-3.3l0,0c-1.8,0-3.3,1.4-3.3,3.3v151.5c0,1.8,1.4,3.3,3.3,3.3l0,0
			C338.3,460.2,339.7,458.7,339.7,456.9z"/>
		<path fill="#323B3F" d="M257.1,456.9V305.5c0-1.8-1.4-3.3-3.3-3.3l0,0c-1.8,0-3.3,1.4-3.3,3.3v151.5c0,1.8,1.4,3.3,3.3,3.3l0,0
			C255.6,460.2,257.1,458.7,257.1,456.9z"/>
		<path fill="#323B3F" d="M281,590.1V487.7c0-2.2-1.8-3.9-3.9-3.9h-6.9c-2.2,0-3.9,1.8-3.9,3.9v102.4c0,2.2,1.8,3.9,3.9,3.9h6.9
			C279.2,594,281,592.3,281,590.1z"/>
		<path fill="#323B3F" d="M324.1,590.1V487.7c0-2.2-1.8-3.9-3.9-3.9h-6.9c-2.2,0-3.9,1.8-3.9,3.9v102.4c0,2.2,1.8,3.9,3.9,3.9h6.9
			C322.4,594,324.1,592.3,324.1,590.1z"/>
		<ellipse fill="#E8D4A5" cx="295.2" cy="427.9" rx="18.9" ry="24.3"/>
		<ellipse fill="#E8D4A5" cx="295.2" cy="435.1" rx="7.4" ry="22.1"/>
		<ellipse fill="#323B3F" cx="295.2" cy="421.6" rx="21.6" ry="22.2"/>
		<path fill="#E8D4A5" d="M258.1,462.9h-8.7c-4.1,0-7.4-3.4-7.4-7.4l0,0c0-4.1,3.4-7.4,7.4-7.4h8.7c4.1,0,7.4,3.4,7.4,7.4l0,0
			C265.6,459.6,262.2,462.9,258.1,462.9z"/>
		<path fill="#E8D4A5" d="M340.9,462.9h-8.7c-4.1,0-7.4-3.4-7.4-7.4l0,0c0-4.1,3.4-7.4,7.4-7.4h8.7c4.1,0,7.4,3.4,7.4,7.4l0,0
			C348.3,459.6,344.9,462.9,340.9,462.9z"/>
		<path fill="#323B3F" d="M284.3,440.6h21.3c2.2,0,3.9,1.8,3.9,3.9v3.2c0,2.2-1.8,3.9-3.9,3.9h-21.3c-2.2,0-3.9-1.8-3.9-3.9v-3.2
			C280.4,442.4,282.2,440.6,284.3,440.6z"/>
		<path fill="#91BA9B" d="M256.8,449h-6.1c-5.1,0-9.2-4.1-9.2-9.2v-60.4c0-5.1,4.1-9.2,9.2-9.2h6.1c5.1,0,9.2,4.1,9.2,9.2v60.4
			C266,444.8,262,449,256.8,449z"/>
		<path fill="#91BA9B" d="M339.6,449h-6.1c-5.1,0-9.2-4.1-9.2-9.2v-60.4c0-5.1,4.1-9.2,9.2-9.2h6.1c5.1,0,9.2,4.1,9.2,9.2v60.4
			C348.8,444.8,344.7,449,339.6,449z"/>
		<path fill="#323B3F" d="M342.8,306.6v-8.7c0-2.2-1.8-3.9-3.9-3.9h-4.6c-2.2,0-3.9,1.8-3.9,3.9v8.7c0,2.2,1.8,3.9,3.9,3.9h4.6
			C341,310.5,342.8,308.8,342.8,306.6z"/>
	</g>
	<g id="ski_2">
		<path fill="#323B3F" d="M276.6,499.7h-6.1c-5.1,0-9.2-4.1-9.2-9.2v-50.8c0-5.1,4.1-9.2,9.2-9.2h6.1c5.1,0,9.2,4.1,9.2,9.2v50.8
			C285.8,495.6,281.7,499.7,276.6,499.7z"/>
		<path fill="#323B3F" d="M319.9,499.7h-6.1c-5.1,0-9.2-4.1-9.2-9.2v-50.8c0-5.1,4.1-9.2,9.2-9.2h6.1c5.1,0,9.2,4.1,9.2,9.2v50.8
			C329.1,495.6,325,499.7,319.9,499.7z"/>
		<path fill="#6D6357" d="M319.9,472.8h-6.1c-5.1,0-9.2-4.1-9.2-9.2v-50.8c0-5.1,4.1-9.2,9.2-9.2h6.1c5.1,0,9.2,4.1,9.2,9.2v50.8
			C329.1,468.6,325,472.8,319.9,472.8z"/>
		<path fill="#6D6357" d="M276.6,472.8h-6.1c-5.1,0-9.2-4.1-9.2-9.2v-50.8c0-5.1,4.1-9.2,9.2-9.2h6.1c5.1,0,9.2,4.1,9.2,9.2v50.8
			C285.8,468.6,281.7,472.8,276.6,472.8z"/>
		<path fill="#323B3F" d="M260,306.6v-8.7c0-2.2-1.8-3.9-3.9-3.9h-4.6c-2.2,0-3.9,1.8-3.9,3.9v8.7c0,2.2,1.8,3.9,3.9,3.9h4.6
			C258.2,310.5,260,308.8,260,306.6z"/>
		<path fill="#91BA9B" d="M305.9,418.3h-21.5c-12.4,0-22.6-10.1-22.6-22.6V375c0-12.4,10.1-22.6,22.6-22.6h21.5
			c12.4,0,22.6,10.1,22.6,22.6v20.8C328.5,408.2,318.4,418.3,305.9,418.3z"/>
		<path fill="#323B3F" d="M339.7,456.9V305.5c0-1.8-1.4-3.3-3.3-3.3l0,0c-1.8,0-3.3,1.4-3.3,3.3v151.5c0,1.8,1.4,3.3,3.3,3.3l0,0
			C338.3,460.2,339.7,458.7,339.7,456.9z"/>
		<path fill="#323B3F" d="M257.1,456.9V305.5c0-1.8-1.4-3.3-3.3-3.3l0,0c-1.8,0-3.3,1.4-3.3,3.3v151.5c0,1.8,1.4,3.3,3.3,3.3l0,0
			C255.6,460.2,257.1,458.7,257.1,456.9z"/>
		<path fill="#323B3F" d="M281,590.1V487.7c0-2.2-1.8-3.9-3.9-3.9h-6.9c-2.2,0-3.9,1.8-3.9,3.9v102.4c0,2.2,1.8,3.9,3.9,3.9h6.9
			C279.2,594,281,592.3,281,590.1z"/>
		<path fill="#323B3F" d="M324.1,590.1V487.7c0-2.2-1.8-3.9-3.9-3.9h-6.9c-2.2,0-3.9,1.8-3.9,3.9v102.4c0,2.2,1.8,3.9,3.9,3.9h6.9
			C322.4,594,324.1,592.3,324.1,590.1z"/>
		<ellipse fill="#E8D4A5" cx="295.2" cy="427.9" rx="18.9" ry="24.3"/>
		<ellipse fill="#E8D4A5" cx="295.2" cy="435.1" rx="7.4" ry="22.1"/>
		<ellipse fill="#323B3F" cx="295.2" cy="421.6" rx="21.6" ry="22.2"/>
		<path fill="#E8D4A5" d="M258.1,462.9h-8.7c-4.1,0-7.4-3.4-7.4-7.4l0,0c0-4.1,3.4-7.4,7.4-7.4h8.7c4.1,0,7.4,3.4,7.4,7.4l0,0
			C265.6,459.6,262.2,462.9,258.1,462.9z"/>
		<path fill="#E8D4A5" d="M340.9,462.9h-8.7c-4.1,0-7.4-3.4-7.4-7.4l0,0c0-4.1,3.4-7.4,7.4-7.4h8.7c4.1,0,7.4,3.4,7.4,7.4l0,0
			C348.3,459.6,344.9,462.9,340.9,462.9z"/>
		<path fill="#323B3F" d="M284.3,440.6h21.3c2.2,0,3.9,1.8,3.9,3.9v3.2c0,2.2-1.8,3.9-3.9,3.9h-21.3c-2.2,0-3.9-1.8-3.9-3.9v-3.2
			C280.4,442.4,282.2,440.6,284.3,440.6z"/>
		<path fill="#91BA9B" d="M256.8,449h-6.1c-5.1,0-9.2-4.1-9.2-9.2v-60.4c0-5.1,4.1-9.2,9.2-9.2h6.1c5.1,0,9.2,4.1,9.2,9.2v60.4
			C266,444.8,262,449,256.8,449z"/>
		<path fill="#91BA9B" d="M339.6,449h-6.1c-5.1,0-9.2-4.1-9.2-9.2v-60.4c0-5.1,4.1-9.2,9.2-9.2h6.1c5.1,0,9.2,4.1,9.2,9.2v60.4
			C348.8,444.8,344.7,449,339.6,449z"/>
		<path fill="#323B3F" d="M342.8,306.6v-8.7c0-2.2-1.8-3.9-3.9-3.9h-4.6c-2.2,0-3.9,1.8-3.9,3.9v8.7c0,2.2,1.8,3.9,3.9,3.9h4.6
			C341,310.5,342.8,308.8,342.8,306.6z"/>
	</g>
	<g id="ski_3">
		<path fill="#323B3F" d="M339.7,436.5v-86c0-1.8-1.4-3.3-3.3-3.3l0,0c-1.8,0-3.3,1.4-3.3,3.3v86.1c0,1.8,1.4,3.3,3.3,3.3l0,0
			C338.3,439.8,339.7,438.3,339.7,436.5z"/>
		<path fill="#323B3F" d="M342.8,351.6V343c0-2.2-1.8-3.9-3.9-3.9h-4.6c-2.2,0-3.9,1.8-3.9,3.9v8.7c0,2.2,1.8,3.9,3.9,3.9h4.6
			C341,355.6,342.8,353.8,342.8,351.6z"/>
		<path fill="#323B3F" d="M276.6,494.3h-6.1c-5.1,0-9.2-4.1-9.2-9.2v-50.8c0-5.1,4.1-9.2,9.2-9.2h6.1c5.1,0,9.2,4.1,9.2,9.2v50.8
			C285.8,490.1,281.7,494.3,276.6,494.3z"/>
		<path fill="#323B3F" d="M319.9,494.3h-6.1c-5.1,0-9.2-4.1-9.2-9.2v-50.8c0-5.1,4.1-9.2,9.2-9.2h6.1c5.1,0,9.2,4.1,9.2,9.2v50.8
			C329.1,490.1,325,494.3,319.9,494.3z"/>
		<path fill="#6D6357" d="M319.9,467.3h-6.1c-5.1,0-9.2-4.1-9.2-9.2v-50.8c0-5.1,4.1-9.2,9.2-9.2h6.1c5.1,0,9.2,4.1,9.2,9.2v50.8
			C329.1,463.2,325,467.3,319.9,467.3z"/>
		<path fill="#6D6357" d="M276.6,467.3h-6.1c-5.1,0-9.2-4.1-9.2-9.2v-50.8c0-5.1,4.1-9.2,9.2-9.2h6.1c5.1,0,9.2,4.1,9.2,9.2v50.8
			C285.8,463.2,281.7,467.3,276.6,467.3z"/>
		<path fill="#91BA9B" d="M305.9,431.9h-21.5c-12.4,0-22.6-10.1-22.6-22.6v-20.8c0-12.4,10.1-22.6,22.6-22.6h21.5
			c12.4,0,22.6,10.1,22.6,22.6v20.8C328.5,422,318.4,431.9,305.9,431.9z"/>
		<path fill="#323B3F" d="M281,584.7V482.2c0-2.2-1.8-3.9-3.9-3.9h-6.9c-2.2,0-3.9,1.8-3.9,3.9v102.4c0,2.2,1.8,3.9,3.9,3.9h6.9
			C279.2,588.7,281,586.9,281,584.7z"/>
		<path fill="#323B3F" d="M324.1,584.7V482.2c0-2.2-1.8-3.9-3.9-3.9h-6.9c-2.2,0-3.9,1.8-3.9,3.9v102.4c0,2.2,1.8,3.9,3.9,3.9h6.9
			C322.4,588.7,324.1,586.9,324.1,584.7z"/>
		<ellipse fill="#E8D4A5" cx="295.2" cy="427.5" rx="18.9" ry="24.3"/>
		<ellipse fill="#E8D4A5" cx="295.2" cy="434.8" rx="7.4" ry="22.1"/>
		<ellipse fill="#323B3F" cx="295.2" cy="421.2" rx="21.6" ry="22.2"/>
		<path fill="#323B3F" d="M284.3,440.2h21.3c2.2,0,3.9,1.8,3.9,3.9v3.2c0,2.2-1.8,3.9-3.9,3.9h-21.3c-2.2,0-3.9-1.8-3.9-3.9v-3.2
			C280.4,442,282.2,440.2,284.3,440.2z"/>
		<path fill="#323B3F" d="M260,351.6V343c0-2.2-1.8-3.9-3.9-3.9h-4.6c-2.2,0-3.9,1.8-3.9,3.9v8.7c0,2.2,1.8,3.9,3.9,3.9h4.6
			C258.2,355.6,260,353.8,260,351.6z"/>
		<path fill="#323B3F" d="M257.1,436.5v-86c0-1.8-1.4-3.3-3.3-3.3l0,0c-1.8,0-3.3,1.4-3.3,3.3v86.1c0,1.8,1.4,3.3,3.3,3.3l0,0
			C255.6,439.8,257.1,438.3,257.1,436.5z"/>
		<path fill="#E8D4A5" d="M258.1,463.2h-8.7c-4.1,0-7.4-3.4-7.4-7.4l0,0c0-4.1,3.4-7.4,7.4-7.4h8.7c4.1,0,7.4,3.4,7.4,7.4l0,0
			C265.6,459.9,262.2,463.2,258.1,463.2z"/>
		<path fill="#91BA9B" d="M256.8,449.3h-6.1c-5.1,0-9.2-4.1-9.2-9.2v-49.2c0-5.1,4.1-9.2,9.2-9.2h6.1c5.1,0,9.2,4.1,9.2,9.2v49.2
			C266,445.2,262,449.3,256.8,449.3z"/>
		<path fill="#E8D4A5" d="M340.9,463.2h-8.7c-4.1,0-7.4-3.4-7.4-7.4l0,0c0-4.1,3.4-7.4,7.4-7.4h8.7c4.1,0,7.4,3.4,7.4,7.4l0,0
			C348.3,459.9,344.9,463.2,340.9,463.2z"/>
		<path fill="#91BA9B" d="M339.6,449.3h-6.1c-5.1,0-9.2-4.1-9.2-9.2v-49.2c0-5.1,4.1-9.2,9.2-9.2h6.1c5.1,0,9.2,4.1,9.2,9.2v49.2
			C348.8,445.2,344.7,449.3,339.6,449.3z"/>
	</g>
	<g id="ski_4">
		<path fill="#323B3F" d="M339.7,435.9v-86c0-1.8-1.4-3.3-3.3-3.3l0,0c-1.8,0-3.3,1.4-3.3,3.3V436c0,1.8,1.4,3.3,3.3,3.3l0,0
			C338.3,439.2,339.7,437.7,339.7,435.9z"/>
		<path fill="#323B3F" d="M342.8,351v-8.7c0-2.2-1.8-3.9-3.9-3.9h-4.6c-2.2,0-3.9,1.8-3.9,3.9v8.7c0,2.2,1.8,3.9,3.9,3.9h4.6
			C341,354.9,342.8,353.1,342.8,351z"/>
		<path fill="#323B3F" d="M276.6,493.6h-6.1c-5.1,0-9.2-4.1-9.2-9.2v-50.8c0-5.1,4.1-9.2,9.2-9.2h6.1c5.1,0,9.2,4.1,9.2,9.2v50.8
			C285.8,489.5,281.7,493.6,276.6,493.6z"/>
		<path fill="#323B3F" d="M319.9,493.6h-6.1c-5.1,0-9.2-4.1-9.2-9.2v-50.8c0-5.1,4.1-9.2,9.2-9.2h6.1c5.1,0,9.2,4.1,9.2,9.2v50.8
			C329.1,489.5,325,493.6,319.9,493.6z"/>
		<path fill="#6D6357" d="M319.9,466.6h-6.1c-5.1,0-9.2-4.1-9.2-9.2v-50.8c0-5.1,4.1-9.2,9.2-9.2h6.1c5.1,0,9.2,4.1,9.2,9.2v50.8
			C329.1,462.6,325,466.6,319.9,466.6z"/>
		<path fill="#6D6357" d="M276.6,466.6h-6.1c-5.1,0-9.2-4.1-9.2-9.2v-50.8c0-5.1,4.1-9.2,9.2-9.2h6.1c5.1,0,9.2,4.1,9.2,9.2v50.8
			C285.8,462.6,281.7,466.6,276.6,466.6z"/>
		<path fill="#91BA9B" d="M305.9,431.3h-21.5c-12.4,0-22.6-10.1-22.6-22.6V388c0-12.4,10.1-22.6,22.6-22.6h21.5
			c12.4,0,22.6,10.1,22.6,22.6v20.7C328.5,421.2,318.4,431.3,305.9,431.3z"/>
		<path fill="#323B3F" d="M281,584V481.6c0-2.2-1.8-3.9-3.9-3.9h-6.9c-2.2,0-3.9,1.8-3.9,3.9V584c0,2.2,1.8,3.9,3.9,3.9h6.9
			C279.2,587.9,281,586.2,281,584z"/>
		<path fill="#323B3F" d="M324.1,584V481.6c0-2.2-1.8-3.9-3.9-3.9h-6.9c-2.2,0-3.9,1.8-3.9,3.9V584c0,2.2,1.8,3.9,3.9,3.9h6.9
			C322.4,587.9,324.1,586.2,324.1,584z"/>
		<ellipse fill="#E8D4A5" cx="295.2" cy="426.9" rx="18.9" ry="24.3"/>
		<ellipse fill="#E8D4A5" cx="295.2" cy="434.1" rx="7.4" ry="22.1"/>
		<ellipse fill="#323B3F" cx="295.2" cy="420.5" rx="21.6" ry="22.2"/>
		<path fill="#323B3F" d="M284.3,439.6h21.3c2.2,0,3.9,1.8,3.9,3.9v3.2c0,2.2-1.8,3.9-3.9,3.9h-21.3c-2.2,0-3.9-1.8-3.9-3.9v-3.2
			C280.4,441.3,282.2,439.6,284.3,439.6z"/>
		<path fill="#323B3F" d="M260,351v-8.7c0-2.2-1.8-3.9-3.9-3.9h-4.6c-2.2,0-3.9,1.8-3.9,3.9v8.7c0,2.2,1.8,3.9,3.9,3.9h4.6
			C258.2,354.9,260,353.1,260,351z"/>
		<path fill="#323B3F" d="M257.1,435.9v-86c0-1.8-1.4-3.3-3.3-3.3l0,0c-1.8,0-3.3,1.4-3.3,3.3V436c0,1.8,1.4,3.3,3.3,3.3l0,0
			C255.6,439.2,257.1,437.7,257.1,435.9z"/>
		<path fill="#E8D4A5" d="M258.1,462.6h-8.7c-4.1,0-7.4-3.4-7.4-7.4l0,0c0-4.1,3.4-7.4,7.4-7.4h8.7c4.1,0,7.4,3.4,7.4,7.4l0,0
			C265.6,459.2,262.2,462.6,258.1,462.6z"/>
		<path fill="#91BA9B" d="M256.8,448.7h-6.1c-5.1,0-9.2-4.1-9.2-9.2v-49.2c0-5.1,4.1-9.2,9.2-9.2h6.1c5.1,0,9.2,4.1,9.2,9.2v49.2
			C266,444.5,262,448.7,256.8,448.7z"/>
		<path fill="#E8D4A5" d="M340.9,462.6h-8.7c-4.1,0-7.4-3.4-7.4-7.4l0,0c0-4.1,3.4-7.4,7.4-7.4h8.7c4.1,0,7.4,3.4,7.4,7.4l0,0
			C348.3,459.2,344.9,462.6,340.9,462.6z"/>
		<path fill="#91BA9B" d="M339.6,448.7h-6.1c-5.1,0-9.2-4.1-9.2-9.2v-49.2c0-5.1,4.1-9.2,9.2-9.2h6.1c5.1,0,9.2,4.1,9.2,9.2v49.2
			C348.8,444.5,344.7,448.7,339.6,448.7z"/>
	</g>
	<g id="ski_5">
		<path fill="#323B3F" d="M339.7,429.1v-59c0-1.8-1.4-3.3-3.3-3.3l0,0c-1.8,0-3.3,1.4-3.3,3.3v59c0,1.8,1.4,3.3,3.3,3.3l0,0
			C338.3,432.3,339.7,430.9,339.7,429.1z"/>
		<path fill="#323B3F" d="M342.8,371.2v-8.7c0-2.2-1.8-3.9-3.9-3.9h-4.6c-2.2,0-3.9,1.8-3.9,3.9v8.7c0,2.2,1.8,3.9,3.9,3.9h4.6
			C341,375.1,342.8,373.4,342.8,371.2z"/>
		<path fill="#323B3F" d="M276.6,485.6h-6.1c-5.1,0-9.2-4.1-9.2-9.2v-50.8c0-5.1,4.1-9.2,9.2-9.2h6.1c5.1,0,9.2,4.1,9.2,9.2v50.8
			C285.8,481.5,281.7,485.6,276.6,485.6z"/>
		<path fill="#323B3F" d="M319.9,485.6h-6.1c-5.1,0-9.2-4.1-9.2-9.2v-50.8c0-5.1,4.1-9.2,9.2-9.2h6.1c5.1,0,9.2,4.1,9.2,9.2v50.8
			C329.1,481.5,325,485.6,319.9,485.6z"/>
		<path fill="#6D6357" d="M319.9,458.6h-6.1c-5.1,0-9.2-4.1-9.2-9.2v-50.8c0-5.1,4.1-9.2,9.2-9.2h6.1c5.1,0,9.2,4.1,9.2,9.2v50.8
			C329.1,454.6,325,458.6,319.9,458.6z"/>
		<path fill="#6D6357" d="M276.6,458.6h-6.1c-5.1,0-9.2-4.1-9.2-9.2v-50.8c0-5.1,4.1-9.2,9.2-9.2h6.1c5.1,0,9.2,4.1,9.2,9.2v50.8
			C285.8,454.6,281.7,458.6,276.6,458.6z"/>
		<path fill="#91BA9B" d="M305.9,442.9h-21.5c-12.4,0-22.6-10.1-22.6-22.6v-20.8c0-12.4,10.1-22.6,22.6-22.6h21.5
			c12.4,0,22.6,10.1,22.6,22.6v20.8C328.5,432.8,318.4,442.9,305.9,442.9z"/>
		<path fill="#323B3F" d="M281,576V473.6c0-2.2-1.8-3.9-3.9-3.9h-6.9c-2.2,0-3.9,1.8-3.9,3.9V576c0,2.2,1.8,3.9,3.9,3.9h6.9
			C279.2,579.9,281,578.2,281,576z"/>
		<path fill="#323B3F" d="M324.1,576V473.6c0-2.2-1.8-3.9-3.9-3.9h-6.9c-2.2,0-3.9,1.8-3.9,3.9V576c0,2.2,1.8,3.9,3.9,3.9h6.9
			C322.4,579.9,324.1,578.2,324.1,576z"/>
		<ellipse fill="#E8D4A5" cx="295.2" cy="426.7" rx="18.9" ry="24.3"/>
		<ellipse fill="#E8D4A5" cx="295.2" cy="433.9" rx="7.4" ry="22.1"/>
		<ellipse fill="#323B3F" cx="295.2" cy="420.4" rx="21.6" ry="22.2"/>
		<path fill="#323B3F" d="M284.3,439.4h21.3c2.2,0,3.9,1.8,3.9,3.9v3.2c0,2.2-1.8,3.9-3.9,3.9h-21.3c-2.2,0-3.9-1.8-3.9-3.9v-3.2
			C280.4,441.2,282.2,439.4,284.3,439.4z"/>
		<path fill="#323B3F" d="M260,371.2v-8.7c0-2.2-1.8-3.9-3.9-3.9h-4.6c-2.2,0-3.9,1.8-3.9,3.9v8.7c0,2.2,1.8,3.9,3.9,3.9h4.6
			C258.2,375.1,260,373.4,260,371.2z"/>
		<path fill="#323B3F" d="M257.1,427.9v-57.8c0-1.8-1.4-3.3-3.3-3.3l0,0c-1.8,0-3.3,1.4-3.3,3.3v57.8c0,1.8,1.4,3.3,3.3,3.3l0,0
			C255.6,431.2,257.1,429.7,257.1,427.9z"/>
		<path fill="#E8D4A5" d="M258.1,436.4h-8.7c-4.1,0-7.4-3.4-7.4-7.4l0,0c0-4.1,3.4-7.4,7.4-7.4h8.7c4.1,0,7.4,3.4,7.4,7.4l0,0
			C265.6,433.1,262.2,436.4,258.1,436.4z"/>
		<path fill="#91BA9B" d="M256.8,422.4h-6.1c-5.1,0-9.2-4.1-9.2-9.2v-26.8c0-5.1,4.1-9.2,9.2-9.2h6.1c5.1,0,9.2,4.1,9.2,9.2v26.8
			C266,418.4,262,422.4,256.8,422.4z"/>
		<path fill="#E8D4A5" d="M340.9,439.2h-8.7c-4.1,0-7.4-3.4-7.4-7.4l0,0c0-4.1,3.4-7.4,7.4-7.4h8.7c4.1,0,7.4,3.4,7.4,7.4l0,0
			C348.3,435.9,344.9,439.2,340.9,439.2z"/>
		<path fill="#91BA9B" d="M339.6,425.3h-6.1c-5.1,0-9.2-4.1-9.2-9.2v-32.3c0-5.1,4.1-9.2,9.2-9.2h6.1c5.1,0,9.2,4.1,9.2,9.2V416
			C348.8,421.2,344.7,425.3,339.6,425.3z"/>
	</g>
</g>
</svg>
